<svg width="1565" height="882" viewBox="0 0 1565 882" fill="none" xmlns="http://www.w3.org/2000/svg">
<g clip-path="url(#clip0_0_925)">
<path fill-rule="evenodd" clip-rule="evenodd" d="M1833.36 537.925C1752.08 521.399 1646.29 479.111 1526.2 381.272C1280.87 181.329 1163.7 197.323 965.56 224.363C941.027 227.711 915.256 231.229 887.992 234.514C884.643 234.919 881.314 235.324 878.008 235.75L872.867 236.518C866.595 237.478 860.365 238.437 854.179 239.354C847.907 240.314 841.677 241.274 835.491 242.191C829.219 243.15 822.989 244.11 816.803 245.027C810.531 245.986 804.301 246.946 798.115 247.863C791.843 248.823 785.613 249.782 779.427 250.699C773.155 251.659 766.925 252.619 760.739 253.536C754.467 254.495 748.237 255.455 742.051 256.372C735.779 257.331 729.549 258.291 723.363 259.208C556.707 284.947 421.112 293.541 269.688 144.458C196.195 72.1025 98.6799 28.4289 2.38123 2.96692C-2.7601 1.60211 -7.88009 0.301269 -13.0001 -0.935547L-7.13343 -0.935548C-3.84809 -0.103883 -0.562764 0.749082 2.7439 1.60205C99.2346 27.1068 196.984 70.9083 270.691 143.435C391.8 262.663 502.84 280.704 627.896 269.913C510.072 277.27 403.832 255.263 288.397 141.622C214.904 69.2663 117.389 25.5927 21.0906 0.13067C19.7039 -0.231878 18.3172 -0.594427 16.9306 -0.956914L22.4986 -0.956915C118.648 24.5904 215.971 68.328 289.379 140.598C410.488 259.826 521.528 277.867 646.584 267.077C528.76 274.434 422.52 252.427 307.085 138.786C235.235 68.0721 140.429 24.7397 46.2639 -0.95692L51.5759 -0.95692C144.333 24.9529 237.304 68.0934 308.088 137.783C429.197 257.012 540.237 275.052 665.293 264.262C547.405 271.576 441.165 249.569 325.731 135.907C256.461 67.7095 165.837 24.9956 75.0212 -0.999588L80.0986 -0.999589C169.549 25.1662 258.467 67.7095 326.712 134.905C447.821 254.133 558.861 272.174 683.917 261.383C566.093 268.74 459.853 246.733 344.419 133.092C277.603 67.3044 190.925 25.2301 103.373 -0.999593L108.237 -0.999594C194.467 25.3794 279.544 67.2404 345.421 132.09C466.531 251.318 577.571 269.359 702.627 258.568C584.803 265.925 478.563 243.918 363.128 130.277C298.659 66.8139 215.715 25.4008 131.32 -0.978236L136.013 -0.978237C219.128 25.5287 300.579 66.7072 364.131 129.275C485.24 248.503 596.28 266.544 721.336 255.753C603.512 263.11 497.272 241.103 381.837 127.462C319.629 66.2167 240.205 25.5287 158.883 -0.978241L163.405 -0.978241C243.491 25.5927 321.507 66.0675 382.84 126.439C503.949 245.667 614.989 263.708 740.045 252.917C622.221 260.274 515.981 238.267 400.547 124.626C340.515 65.5131 264.44 25.5501 186.083 -0.978245L190.456 -0.978246C267.597 25.614 342.328 65.3424 401.549 123.624C522.659 242.852 633.699 260.893 758.755 250.102C640.931 257.459 534.691 235.452 419.256 121.811C361.315 64.7667 288.44 25.5501 212.984 -0.97825L217.208 -0.978251C291.491 25.5714 363.107 64.5321 420.237 120.787C541.347 240.015 652.387 258.056 777.443 247.266C659.619 254.623 553.379 232.616 437.944 118.975C382.029 63.935 312.205 25.486 239.587 -0.978255L243.683 -0.978255C315.171 25.486 383.8 63.6791 438.947 117.973C560.056 237.201 671.096 255.241 796.152 244.451C678.328 251.808 572.088 229.801 456.653 116.16C402.701 63.0393 335.779 25.3794 265.933 -0.956958L269.901 -0.956959C338.68 25.3794 404.451 62.7834 457.656 115.158C578.765 234.386 689.805 252.427 814.861 241.636C697.037 248.993 590.797 226.986 475.363 113.345C423.309 62.101 359.181 25.2301 292.003 -0.956963L295.864 -0.956963C361.997 25.2088 425.016 61.8025 476.365 112.343C597.475 231.571 708.515 249.612 833.571 238.821C715.747 246.178 609.507 224.171 494.072 110.53C443.853 61.0988 382.435 25.0595 317.837 -0.935605L321.592 -0.935605C385.165 25.0169 445.539 60.7789 495.053 109.528C616.163 228.756 727.203 246.797 852.259 236.006C734.435 243.363 628.195 221.356 512.76 107.715C464.355 60.0538 405.496 24.8249 343.459 -0.935609L347.107 -0.93561C408.163 24.7823 466.019 59.7127 513.763 106.713C634.872 225.941 745.912 243.982 870.968 233.191C753.144 240.549 646.904 218.541 531.469 104.9C484.792 58.9663 428.451 24.569 368.867 -0.914373L372.451 -0.914374C431.075 24.505 486.456 58.6037 532.472 103.898C653.581 223.126 764.621 241.167 889.677 230.377C771.853 237.734 665.613 215.726 550.179 102.085C505.208 57.8147 451.256 24.2918 394.083 -0.914378L397.56 -0.914378C453.795 24.1852 506.851 57.4308 551.181 101.062C672.291 220.29 783.331 238.331 908.387 227.54C790.563 234.897 684.323 212.89 568.888 99.2492C525.581 56.6205 473.933 23.9506 419.107 -0.914382L422.52 -0.914383C476.429 23.844 527.203 56.2153 569.891 98.2468C691 217.475 802.04 235.516 927.096 224.725C809.272 232.083 703.032 210.075 587.597 96.4342C545.912 55.4049 496.504 23.588 443.96 -0.914387L447.288 -0.914387C498.936 23.4814 547.512 54.9785 588.579 95.4107C709.688 214.639 820.728 232.68 945.784 221.889C827.96 229.246 721.72 207.239 606.285 93.598C566.2 54.1255 518.947 23.1829 468.643 -0.914391L471.885 -0.914391C521.336 23.0549 567.757 53.6989 607.267 92.5957C728.376 211.824 839.416 229.865 964.472 219.074C846.648 226.431 740.408 204.424 624.973 90.7831C586.275 52.7393 541.112 22.6711 492.984 -0.999661L496.184 -0.999662C543.48 22.5431 587.832 52.2915 625.805 89.6742C746.915 208.902 857.955 226.943 983.011 216.153C865.187 223.51 758.947 201.502 643.512 87.8616C606.477 51.4172 563.363 22.2446 517.347 -0.999665L520.461 -0.999666C565.645 22.0953 608.013 50.948 644.493 86.8593C765.603 206.087 876.643 224.128 1001.7 213.338C883.875 220.695 777.635 198.688 662.2 85.0467C626.659 50.0524 585.507 21.7755 541.581 -0.978307L544.632 -0.978308C587.768 21.6262 628.195 49.5832 663.203 84.0444C784.312 203.272 895.352 221.313 1020.41 210.523C902.584 217.88 796.344 195.873 680.909 82.2318C646.797 48.6449 607.544 21.2636 565.645 -0.999674L568.653 -0.999674C609.805 21.093 648.333 48.1758 681.891 81.2082C803 200.436 914.04 218.477 1039.1 207.687C921.272 215.044 815.032 193.036 699.597 79.3956C666.936 47.2375 629.539 20.7518 589.603 -0.978316L592.547 -0.978316C631.736 20.5812 668.451 46.747 700.579 78.3933C833.037 208.796 953.443 218.157 1093.3 201.14C1098.96 200.266 1104.65 199.413 1110.39 198.56C1116.58 197.6 1122.81 196.662 1129.08 195.723C1135.27 194.764 1141.5 193.825 1147.77 192.887C1153.95 191.927 1160.18 190.989 1166.46 190.051C1172.64 189.091 1178.87 188.153 1185.14 187.215C1191.33 186.255 1197.56 185.317 1203.83 184.378C1210.02 183.419 1216.25 182.48 1222.52 181.542C1228.71 180.583 1234.94 179.644 1241.21 178.706C1265.93 174.889 1291.41 171.221 1317.71 168.043C1345.14 164.738 1370.83 161.241 1395.26 157.893C1557.35 135.757 1665.36 121.043 1833.31 225.386L1833.31 227.05C1705.49 147.486 1612.45 136.952 1503.91 146.228C1609.81 139.468 1703.37 154.865 1833.31 240.143L1833.31 241.849C1695.69 151.367 1598.97 139.361 1485.22 149.064C1596.13 141.984 1693.52 159.215 1833.31 255.561L1833.31 257.288C1685.6 155.312 1585.36 141.75 1466.53 151.9C1582.33 144.501 1683.34 163.586 1833.31 271.555L1833.31 273.304C1675.23 159.3 1571.62 144.138 1447.84 154.715C1568.38 147.017 1672.93 168.043 1833.31 288.103L1833.31 289.873C1664.57 163.352 1557.73 146.548 1429.13 157.53C1554.3 149.533 1662.2 172.5 1833.31 305.184L1833.31 306.976C1653.62 167.425 1543.74 149 1410.45 160.366C1540.11 152.092 1651.26 177.021 1833.31 322.735L1833.31 324.548C1642.42 171.541 1529.59 151.431 1391.76 163.203C1524.13 154.758 1637.2 180.902 1826.15 334.869C1828.54 336.831 1830.93 338.75 1833.31 340.648L1833.31 342.461C1830.63 340.328 1827.94 338.153 1825.25 335.956C1627.87 175.102 1513.44 154.033 1373.07 166.018C1505.44 157.573 1618.51 183.717 1807.46 337.684C1816.16 344.764 1824.78 351.566 1833.31 358.092L1833.31 359.862C1824.48 353.144 1815.57 346.128 1806.56 338.793C1609.19 177.938 1494.75 156.869 1354.38 168.854C1486.75 160.409 1599.82 186.554 1788.77 340.52C1803.85 352.824 1818.72 364.212 1833.34 374.811L1833.34 376.559C1818.42 365.769 1803.28 354.168 1787.9 341.629C1590.52 180.774 1476.09 159.705 1335.71 171.69C1468.09 163.245 1581.15 189.39 1770.1 343.356C1791.67 360.928 1812.77 376.687 1833.36 390.847L1833.36 392.574C1812.49 378.265 1791.1 362.271 1769.21 344.444C1571.83 183.589 1457.4 162.52 1317.03 174.505C1449.4 166.06 1562.47 192.205 1751.42 346.171C1779.58 369.117 1806.93 388.97 1833.36 406.18L1833.36 407.864C1806.63 390.527 1778.98 370.46 1750.52 347.28C1553.14 186.426 1438.71 165.356 1298.34 177.341C1430.71 168.896 1543.78 195.041 1732.73 349.007C1767.57 377.391 1801.19 401.104 1833.36 420.851L1833.36 422.493C1800.91 402.618 1766.99 378.756 1731.83 350.095C1534.46 189.24 1420.02 168.171 1279.65 180.156C1412.02 171.711 1525.09 197.856 1714.04 351.822C1755.68 385.772 1795.6 412.982 1833.38 434.776L1833.38 436.397C1795.34 414.496 1755.13 387.115 1713.17 352.91C1515.79 192.055 1401.36 170.986 1260.98 182.971C1393.36 174.526 1506.42 200.671 1695.37 354.637C1743.97 394.238 1790.18 424.69 1833.4 448.041L1833.4 449.64C1789.92 426.204 1743.39 395.581 1694.5 355.725C1497.12 194.87 1382.69 173.801 1242.32 185.786C1374.69 177.341 1487.76 203.486 1676.71 357.452C1732.37 402.81 1784.95 436.205 1833.42 460.622L1833.42 462.179C1784.67 437.698 1731.81 404.175 1675.81 358.54C1478.43 197.685 1364 176.616 1223.63 188.601C1356 180.156 1469.07 206.301 1658.02 360.267C1720.93 411.532 1779.87 447.486 1833.42 472.5L1833.42 474.057C1779.62 449 1720.35 412.876 1657.12 361.355C1459.68 200.628 1345.25 179.538 1204.88 191.522C1337.25 183.078 1450.32 209.222 1639.27 363.188C1709.58 420.489 1774.97 458.682 1833.36 483.824L1833.36 485.359C1774.69 460.196 1709.01 421.854 1638.37 364.297C1440.99 203.443 1326.56 182.374 1186.19 194.359C1318.56 185.914 1431.63 212.058 1620.58 366.025C1698.49 429.509 1770.34 469.558 1833.38 494.359L1833.38 495.851C1770.1 471.029 1697.93 430.874 1619.7 367.112C1422.33 206.258 1307.9 185.189 1167.52 197.173C1299.9 188.729 1412.96 214.873 1601.91 368.84C1687.63 438.7 1766.03 480.177 1833.4 504.168L1833.4 505.661C1765.77 481.649 1687.07 440.065 1601.02 369.948C1403.64 209.094 1289.21 188.025 1148.83 200.01C1281.21 191.565 1394.27 217.709 1583.22 371.676C1677.01 448.105 1762.02 490.563 1833.4 513.316L1833.4 514.788C1761.76 492.013 1676.43 449.448 1582.33 372.763C1384.95 211.909 1270.52 190.84 1130.15 202.825C1262.52 194.38 1375.59 220.524 1564.54 374.491C1666.64 457.701 1758.35 500.649 1833.4 521.74L1833.4 523.19C1758.09 502.078 1666.06 459.066 1563.64 375.578C1366.26 214.724 1251.83 193.655 1111.46 205.639C1243.83 197.195 1356.9 223.339 1545.85 377.306C1656.61 467.553 1755.13 510.438 1833.42 529.459L1833.42 530.888C1754.87 511.866 1656.03 468.918 1544.97 378.393C1347.6 217.539 1233.17 196.47 1092.79 208.454C1225.17 200.01 1338.23 226.154 1527.18 380.121C1646.95 477.704 1752.4 519.927 1833.44 536.454L1833.44 537.925L1833.36 537.925Z" fill="#ACBAC9" fill-opacity="0.3"/>
</g>
<defs>
<clipPath id="clip0_0_925">
<rect width="1565" height="882" fill="white" transform="matrix(1 -1.74846e-07 -1.74846e-07 -1 0 882)"/>
</clipPath>
</defs>
</svg>
