<svg width="765" height="1933" viewBox="0 0 765 1933" fill="none" xmlns="http://www.w3.org/2000/svg">
<path fill-rule="evenodd" clip-rule="evenodd" d="M493.956 0.0777798C466.011 81.5371 447.635 197.952 469.943 355.018C515.57 675.933 440.802 773.443 314.362 938.354C298.707 958.773 282.261 980.221 265.241 1003.13C263.149 1005.94 261.068 1008.74 258.979 1011.5L255.641 1015.75C251.549 1020.92 247.479 1026.05 243.468 1031.16C239.376 1036.33 235.306 1041.46 231.296 1046.57C227.204 1051.74 223.134 1056.87 219.123 1061.98C215.031 1067.15 210.961 1072.28 206.95 1077.39C202.858 1082.56 198.788 1087.69 194.777 1092.8C190.685 1097.97 186.615 1103.1 182.604 1108.21C178.512 1113.38 174.442 1118.51 170.432 1123.62C166.339 1128.79 162.27 1133.92 158.259 1139.03C49.3172 1276.24 -28.6246 1394.05 21.7747 1604.96C46.2347 1707.33 33.3627 1816.98 5.34902 1916.43C3.85801 1921.75 2.32275 1927.01 0.732094 1932.24L3.78228 1926.95C4.77004 1923.58 5.7393 1920.19 6.7197 1916.79C34.7962 1817.14 47.6794 1707.21 23.1826 1604.57C-17.1192 1435.89 24.9866 1326.87 99.3516 1219.65C31.7204 1322.08 -4.45422 1428.75 33.9586 1589.53C58.4186 1691.9 45.5466 1801.55 17.5329 1901C17.126 1902.43 16.719 1903.86 16.3121 1905.29L19.207 1900.28C47.0691 1800.92 59.7859 1691.41 35.3554 1589.16C-4.94632 1420.48 37.1594 1311.46 111.524 1204.24C43.8932 1306.66 7.71861 1413.34 46.1315 1574.12C70.0233 1674.19 58.2643 1781.23 31.563 1878.88L34.3248 1874.1C60.1094 1777.61 71.0807 1672.31 47.5209 1573.72C7.21914 1405.04 49.3248 1296.02 123.69 1188.8C56.0623 1291.3 19.8877 1397.98 58.3191 1558.77C81.3734 1655.25 71.2528 1758.22 46.5514 1853L49.1912 1848.43C73.0349 1754.79 82.416 1653.45 59.6974 1558.39C19.3956 1389.7 61.5014 1280.69 135.866 1173.47C68.2351 1275.89 32.0605 1382.57 70.4734 1543.35C92.7161 1636.42 84.0933 1735.51 61.2922 1827.47L63.821 1823.09C85.8053 1732.25 93.7809 1634.7 71.8628 1542.95C31.5611 1374.26 73.6668 1265.25 148.032 1158.03C80.4006 1260.45 44.226 1367.13 82.6388 1527.91C104.088 1617.7 96.834 1713.1 75.8037 1802.3L78.2438 1798.07C98.4978 1709.97 105.179 1616.03 84.0283 1527.51C43.7266 1358.82 85.8322 1249.81 160.197 1142.59C92.566 1245.01 56.3915 1351.69 94.8043 1512.47C115.509 1599.12 109.456 1690.99 90.134 1777.47L92.4854 1773.4C111.109 1688 116.614 1597.5 96.2121 1512.08C55.9104 1343.39 98.0161 1234.38 172.381 1127.16C104.75 1229.58 68.5753 1336.26 106.988 1497.04C126.977 1580.66 122.038 1669.15 104.276 1752.98L106.55 1749.04C123.624 1666.28 128.067 1579.11 108.378 1496.64C68.0759 1327.95 110.182 1218.94 184.547 1111.72C116.915 1214.14 80.7408 1320.82 119.154 1481.6C138.438 1562.3 134.516 1647.54 118.262 1728.75L120.458 1724.95C136.084 1644.78 139.572 1560.81 120.55 1481.23C80.2487 1312.54 122.354 1203.53 196.719 1096.31C129.088 1198.73 92.9136 1305.41 131.326 1466.19C149.928 1544.06 146.927 1626.17 132.094 1704.8L134.223 1701.11C148.469 1623.5 151.07 1542.6 132.716 1465.79C92.4142 1297.1 134.52 1188.09 208.885 1080.87C141.254 1183.29 105.079 1289.97 143.492 1450.75C161.451 1525.9 159.276 1604.99 145.773 1681.06L147.836 1677.49C160.784 1602.38 162.583 1524.45 144.881 1450.35C104.58 1281.66 146.685 1172.64 221.05 1065.42C153.419 1167.85 117.244 1274.53 155.657 1435.31C172.979 1507.81 171.573 1583.99 159.327 1657.59L161.335 1654.11C173.055 1581.47 174.124 1506.42 157.047 1434.9C116.745 1266.22 158.851 1157.2 233.216 1049.98C165.584 1152.41 129.41 1259.09 167.823 1419.87C184.528 1489.81 183.81 1563.14 172.741 1634.31L174.693 1630.93C185.267 1560.7 185.681 1488.45 169.201 1419.48C128.899 1250.8 171.005 1141.78 245.37 1034.56C177.739 1136.99 141.564 1243.66 179.977 1404.44C196.092 1471.87 196.004 1542.49 186.062 1611.24L187.958 1607.95C197.427 1540.11 197.253 1470.54 181.367 1404.04C141.065 1235.36 183.17 1126.34 257.536 1019.12C189.904 1121.55 153.73 1228.22 192.143 1389C207.66 1454.01 208.16 1521.95 199.253 1588.35L201.117 1585.12C209.579 1519.61 208.839 1452.69 193.532 1388.6C153.23 1219.92 195.336 1110.9 269.701 1003.68C202.07 1106.11 165.895 1212.78 204.308 1373.56C219.272 1436.2 220.257 1501.55 212.364 1565.64L214.171 1562.51C221.669 1499.31 220.458 1434.91 205.716 1373.17C165.414 1204.49 207.52 1095.47 281.885 988.252C214.254 1090.68 178.079 1197.35 216.492 1358.13C230.899 1418.45 232.343 1481.3 225.374 1543.1L227.149 1540.03C233.733 1479.1 232.093 1417.19 217.881 1357.73C177.58 1189.05 219.685 1080.03 294.05 972.811C226.419 1075.24 190.245 1181.91 228.657 1342.69C242.522 1400.75 244.392 1461.15 238.296 1520.72L240.026 1517.73C245.748 1459.02 243.723 1399.52 230.054 1342.32C189.752 1173.64 231.858 1064.62 306.223 957.4C238.592 1059.82 202.417 1166.5 240.83 1327.28C254.178 1383.12 256.411 1441.15 251.129 1498.5L252.815 1495.58C257.764 1439.06 255.357 1381.93 242.209 1326.9C201.907 1158.22 244.012 1049.2 318.378 941.979C250.746 1044.4 214.572 1151.08 252.985 1311.86C265.816 1365.73 268.378 1421.44 263.858 1476.62L265.522 1473.74C269.72 1419.37 267.013 1364.56 254.378 1311.67C214.076 1142.98 256.181 1033.97 330.547 926.745C262.915 1029.17 226.741 1135.85 265.154 1296.63C277.465 1348.2 280.316 1401.62 276.525 1454.68L278.144 1451.87C281.632 1399.64 278.67 1347.05 266.532 1296.24C226.23 1127.56 268.336 1018.54 342.701 911.324C275.07 1013.75 238.895 1120.43 277.308 1281.21C289.14 1330.71 292.236 1381.91 289.106 1432.84L290.692 1430.1C293.541 1379.95 290.344 1329.56 278.697 1280.8C238.396 1112.12 280.501 1003.1 354.866 895.883C287.235 998.308 251.061 1104.98 289.473 1265.77C300.829 1313.28 304.137 1362.32 301.636 1411.18L303.2 1408.48C305.46 1360.37 302.034 1312.13 290.87 1265.39C250.568 1096.71 292.674 987.693 367.039 880.473C299.408 982.897 263.233 1089.57 301.646 1250.35C312.519 1295.85 316.015 1342.77 314.073 1389.6L315.604 1386.95C317.306 1340.88 313.731 1294.73 303.025 1249.97C258.945 1065.48 313.437 952.37 400.893 834.931C404.59 830.277 408.29 825.574 412.013 820.833C416.06 815.742 420.112 810.601 424.186 805.422C428.233 800.331 432.285 795.19 436.358 790.012C440.406 784.92 444.457 779.78 448.531 774.601C452.579 769.509 456.63 764.369 460.704 759.19C464.752 754.099 468.803 748.958 472.877 743.779C476.925 738.688 480.976 733.548 485.05 728.369C489.097 723.277 493.149 718.137 497.222 712.958C513.384 692.601 529.804 671.497 546.232 649.399C563.359 626.346 579.742 604.964 595.342 584.642C698.788 449.744 767.69 359.836 764.638 156.407L763.197 155.576C765.65 310.476 726.404 399.525 661.935 492.632C722.849 400.648 758.161 308.689 751.856 149.028L750.378 148.175C757.197 317.353 717.307 410.461 649.762 508.043C713.56 411.704 749.269 315.389 738.502 141.318L737.006 140.454C748.534 324.468 708.162 421.523 637.589 523.454C704.204 422.876 740.191 322.366 724.649 133.32L723.134 132.445C739.689 331.81 698.95 432.701 625.435 538.875C694.77 434.182 730.918 329.513 710.316 125.045L708.783 124.16C730.634 339.39 689.642 444.002 613.27 554.316C685.27 445.602 721.479 336.947 695.521 116.503L693.969 115.607C721.416 347.208 680.242 455.379 601.097 569.726C675.678 457.098 711.873 344.542 680.32 107.726L678.75 106.82C712.028 355.236 670.782 466.9 588.924 585.137C665.062 470.155 701.202 355.261 666.083 108.113C665.626 104.981 665.206 101.869 664.804 98.7686L663.234 97.8622C663.684 101.349 664.17 104.857 664.675 108.377C701.379 366.557 660.133 480.142 576.77 600.559C652.907 485.576 689.048 370.683 653.929 123.535C652.322 112.156 650.911 100.993 649.696 90.0455L648.163 89.1604C649.389 100.473 650.829 112.012 652.503 123.787C689.206 381.968 647.96 495.553 564.597 615.969C640.734 500.987 676.875 386.093 641.756 138.946C638.94 119.21 636.808 100.125 635.226 81.6656L633.711 80.7912C635.304 99.6158 637.477 119.057 640.341 139.179C677.045 397.359 635.798 510.944 552.435 631.361C628.573 516.378 664.713 401.485 629.594 154.337C625.588 126.127 622.908 99.2469 621.347 73.6272L619.851 72.7634C621.397 98.7075 624.125 125.974 628.186 154.6C664.89 412.781 623.644 526.365 540.281 646.782C616.418 531.799 652.559 416.906 617.44 169.758C612.207 132.925 609.23 98.3683 608.067 65.9598L606.608 65.1173C607.726 97.8588 610.732 132.791 616.014 170.011C652.717 428.191 611.471 541.776 528.108 662.193C604.246 547.21 640.386 432.317 605.267 185.169C598.795 139.604 595.737 97.4683 595.359 58.623L593.937 57.8018C594.281 96.961 597.314 139.44 603.859 185.432C640.563 443.613 599.317 557.198 515.954 677.614C592.091 562.632 628.232 447.738 593.113 200.59C585.359 146.113 582.542 96.5619 583.309 51.6403L581.905 50.8298C581.098 96.0353 583.906 145.941 591.716 200.834C628.42 459.015 587.173 572.6 503.81 693.016C579.948 578.034 616.089 463.14 580.97 215.993C571.936 152.427 569.585 95.587 571.831 44.9879L570.446 44.1881C568.14 95.0603 570.473 152.274 579.573 216.237C616.276 474.417 575.03 588.002 491.667 708.419C567.805 593.436 603.945 478.542 568.826 231.395C558.477 158.591 556.893 94.5352 560.945 38.677L559.596 37.8986C555.456 94.0384 557.007 158.408 567.418 231.658C604.122 489.838 562.876 603.423 479.513 723.84C555.65 608.857 591.791 493.964 556.672 246.816C544.978 164.526 544.483 93.4663 550.657 32.7372L549.308 31.9587C543.038 92.9396 543.515 164.373 555.264 247.079C591.824 505.253 550.596 618.849 467.233 739.266C543.37 624.283 579.511 509.389 544.392 262.242C531.32 170.268 532.235 92.2862 540.815 27.1323L539.486 26.3645C530.779 91.7788 529.838 170.104 542.966 262.494C579.669 520.675 538.423 634.26 455.06 754.676C531.198 639.694 567.338 524.8 532.219 277.653C517.739 175.747 520.408 91.0165 531.702 21.8451L530.409 21.0986C519.011 90.492 516.268 175.564 530.822 277.897C567.526 536.077 526.28 649.662 442.917 770.079C519.054 655.096 555.195 540.202 520.076 293.055C504.132 180.929 508.969 89.5864 523.217 16.9204L521.924 16.1739C507.561 89.0811 502.662 180.746 518.65 293.307C555.353 551.488 514.107 665.073 430.744 785.489C506.881 670.507 543.022 555.613 507.903 308.466C490.463 185.793 497.889 88.0047 515.293 12.3455L514.019 11.6097C496.499 87.5101 489 185.64 506.495 308.729C543.199 566.909 501.953 680.494 418.589 800.911C494.727 685.928 530.868 571.034 495.749 323.887C476.761 190.331 487.244 86.265 507.997 8.13324L506.741 7.4081C485.874 85.7811 475.28 190.167 494.341 324.15C531.045 582.33 489.798 695.915 406.435 816.332C482.573 701.349 518.713 586.456 483.594 339.308C463.015 194.434 477.091 84.2712 501.322 4.25375L500.084 3.53927C475.721 83.7873 461.533 194.27 482.198 339.552C518.901 597.733 477.655 711.317 394.292 831.734C470.429 716.751 506.57 601.858 471.451 354.71C449.198 198.06 467.452 81.9847 495.275 0.736728L494 0.000924252L493.956 0.0777798Z" fill="white" fill-opacity="0.3"/>
</svg>
