<svg width="1920" height="541" viewBox="0 0 1920 541" fill="none" xmlns="http://www.w3.org/2000/svg">
<path fill-rule="evenodd" clip-rule="evenodd" d="M0.0888672 540.002C84.8269 523.442 195.12 481.07 320.314 383.036C576.085 182.694 698.233 198.72 904.807 225.814C930.384 229.169 957.251 232.694 985.675 235.985C989.167 236.391 992.637 236.797 996.084 237.224L1001.44 237.993C1007.98 238.955 1014.48 239.917 1020.93 240.835C1027.47 241.797 1033.96 242.758 1040.41 243.677C1046.95 244.639 1053.44 245.6 1059.89 246.519C1066.43 247.481 1072.93 248.442 1079.38 249.361C1085.92 250.323 1092.41 251.284 1098.86 252.203C1105.4 253.164 1111.89 254.126 1118.34 255.045C1124.88 256.006 1131.38 256.968 1137.83 257.887C1144.36 258.848 1150.86 259.81 1157.31 260.729C1331.06 286.519 1472.42 295.13 1630.29 145.75C1706.91 73.2502 1808.57 29.4895 1908.96 3.97671C1914.32 2.60922 1919.66 1.30582 1925 0.0664978L1918.88 0.0664967C1915.46 0.899809 1912.03 1.75448 1908.59 2.60916C1807.99 28.1647 1706.08 72.0536 1629.24 144.724C1502.98 264.19 1387.21 282.267 1256.84 271.455C1379.67 278.827 1490.43 256.776 1610.78 142.908C1687.4 70.4083 1789.06 26.6477 1889.46 1.13485C1890.9 0.77157 1892.35 0.40835 1893.8 0.045069L1887.99 0.045068C1787.75 25.6433 1686.29 69.4681 1609.76 141.883C1483.49 261.348 1367.73 279.425 1237.35 268.613C1360.19 275.985 1470.95 253.934 1591.3 140.066C1666.2 69.2117 1765.04 25.7929 1863.21 0.0450637L1857.68 0.0450627C1760.97 26.0066 1664.05 69.233 1590.25 139.062C1463.99 258.528 1348.23 276.605 1217.85 265.793C1340.75 273.122 1451.51 251.07 1571.86 137.182C1644.07 68.8484 1738.55 26.0493 1833.23 0.00233381L1827.94 0.00233288C1734.68 26.2203 1641.98 68.8484 1570.83 136.177C1444.57 255.643 1328.81 273.72 1198.43 262.908C1321.27 270.28 1432.03 248.229 1552.37 134.361C1622.03 68.4425 1712.4 26.2844 1803.68 0.00232864L1798.6 0.00232775C1708.71 26.434 1620.01 68.3784 1551.33 133.357C1425.07 252.823 1309.3 270.899 1178.93 260.088C1301.76 267.459 1412.52 245.408 1532.87 131.541C1600.08 67.951 1686.55 26.4553 1774.54 0.0237469L1769.65 0.023746C1683 26.5835 1598.08 67.8441 1531.82 130.536C1405.56 250.002 1289.8 268.079 1159.42 257.267C1282.26 264.639 1393.02 242.588 1513.36 128.72C1578.22 67.3527 1661.02 26.5835 1745.8 0.0237419L1741.09 0.023741C1657.6 26.6476 1576.26 67.2031 1512.32 127.695C1386.06 247.16 1270.29 265.237 1139.92 254.425C1262.75 261.797 1373.51 239.746 1493.86 125.878C1556.45 66.6476 1635.76 26.6049 1717.45 0.0237369L1712.89 0.0237361C1632.46 26.669 1554.55 66.4766 1492.81 124.874C1366.55 244.34 1250.79 262.417 1120.41 251.605C1243.25 258.976 1354.01 236.925 1474.35 123.058C1534.76 65.8997 1610.74 26.6049 1689.4 0.023732L1685 0.0237312C1607.55 26.6263 1532.89 65.6647 1473.33 122.032C1347.07 241.498 1231.3 259.575 1100.93 248.763C1223.76 256.135 1334.52 234.083 1454.87 120.216C1513.16 65.0664 1585.96 26.5407 1661.67 0.0237272L1657.4 0.0237264C1582.87 26.5407 1511.32 64.8099 1453.83 119.212C1327.56 238.677 1211.8 256.754 1081.42 245.942C1204.26 253.314 1315.02 231.263 1435.37 117.395C1491.61 64.1689 1561.38 26.4339 1634.2 0.0450236L1630.06 0.0450229C1558.36 26.4339 1489.79 63.9125 1434.32 116.391C1308.06 235.857 1192.29 253.934 1061.92 243.122C1184.75 250.494 1295.51 228.442 1415.86 114.575C1470.13 63.2287 1536.98 26.2843 1607.02 0.0450189L1603 0.0450182C1534.05 26.263 1468.35 62.9296 1414.81 113.571C1288.55 233.036 1172.79 251.113 1042.41 240.301C1165.25 247.673 1276.01 225.622 1396.35 111.754C1448.71 62.2245 1512.74 26.1134 1580.09 0.0664375L1576.17 0.0664368C1509.89 26.0706 1446.95 61.904 1395.33 110.75C1269.07 230.216 1153.31 248.293 1022.93 237.481C1145.77 244.852 1256.53 222.801 1376.87 108.934C1427.34 61.1775 1488.7 25.8784 1553.38 0.0664328L1549.57 0.0664322C1485.92 25.8356 1425.6 60.8356 1375.83 107.93C1249.56 227.395 1133.8 245.472 1003.42 234.66C1126.26 242.032 1237.02 219.981 1357.37 106.113C1406.03 60.0877 1464.77 25.6219 1526.89 0.0877295L1523.15 0.0877288C1462.03 25.5578 1404.29 59.7244 1356.32 105.109C1230.06 224.575 1114.29 242.652 983.918 231.84C1106.75 239.211 1217.51 217.16 1337.86 103.293C1384.74 58.9338 1440.99 25.3441 1500.6 0.0877249L1496.97 0.0877242C1438.35 25.2373 1383.03 58.5493 1336.82 102.267C1210.55 221.733 1094.79 239.81 964.413 228.998C1087.25 236.37 1198.01 214.318 1318.36 100.451C1363.5 57.7373 1417.35 25.0023 1474.51 0.0877203L1470.95 0.0877197C1414.75 24.8954 1361.81 57.3313 1317.31 99.4466C1191.05 218.912 1075.28 236.989 944.907 226.177C1067.74 233.549 1178.5 211.498 1298.85 97.6304C1342.31 56.5193 1393.82 24.639 1448.6 0.0877158L1445.13 0.0877152C1391.28 24.5322 1340.64 56.092 1297.83 96.6048C1171.57 216.07 1055.8 234.147 925.424 223.335C1048.26 230.707 1159.02 208.656 1279.37 94.7885C1321.16 55.2373 1370.42 24.233 1422.87 0.0877113L1419.49 0.0877107C1367.93 24.1048 1319.53 54.8099 1278.34 93.7842C1152.08 213.25 1036.32 231.327 905.941 220.515C1028.78 227.887 1139.54 205.835 1259.88 91.968C1300.23 53.8483 1347.31 23.7202 1397.49 0.00225762L1394.15 0.00225704C1344.84 23.592 1298.61 53.3996 1259.02 90.8569C1132.75 210.323 1016.99 228.399 886.614 217.588C1009.45 224.959 1120.21 202.908 1240.56 89.0406C1279.17 52.5236 1324.12 23.2928 1372.09 0.00225318L1368.84 0.00225261C1321.74 23.1433 1277.57 52.0535 1239.53 88.0364C1113.27 207.502 997.507 225.579 867.131 214.767C989.968 222.139 1100.73 200.088 1221.07 86.2201C1258.13 51.1561 1301.03 22.8228 1346.82 0.0236721L1343.64 0.0236715C1298.67 22.6732 1256.53 50.686 1220.03 85.2159C1093.77 204.682 978.002 222.758 847.625 211.946C970.462 219.318 1081.22 197.267 1201.57 83.3996C1237.13 49.7458 1278.05 22.3099 1321.74 0.00224438L1318.6 0.00224383C1275.7 22.139 1235.53 49.2757 1200.55 82.374C1074.28 201.84 958.519 219.917 828.142 209.105C950.979 216.476 1061.74 194.425 1182.09 80.5577C1216.14 48.3355 1255.12 21.7972 1296.76 0.0236633L1293.69 0.0236628C1252.83 21.6262 1214.56 47.8441 1181.06 79.5535C1042.97 210.216 917.44 219.596 771.628 202.545C765.734 201.669 759.796 200.814 753.813 199.959C747.363 198.998 740.869 198.058 734.33 197.117C727.88 196.156 721.386 195.216 714.847 194.276C708.397 193.314 701.903 192.374 695.364 191.434C688.914 190.472 682.419 189.532 675.881 188.592C669.431 187.63 662.936 186.69 656.398 185.75C649.948 184.788 643.453 183.848 636.914 182.908C630.465 181.946 623.97 181.006 617.431 180.066C591.654 176.241 565.098 172.566 537.675 169.382C509.073 166.07 482.295 162.566 456.829 159.211C287.843 137.032 175.237 122.288 0.133478 226.84L0.133477 228.506C133.401 148.784 230.394 138.228 343.556 147.523C233.152 140.75 135.603 156.177 0.133475 241.626L0.133475 243.335C143.61 152.673 244.45 140.643 363.039 150.365C247.409 143.271 145.878 160.536 0.133472 257.075L0.133472 258.805C154.13 156.626 258.64 143.036 382.522 153.207C261.798 145.793 156.487 164.916 0.13347 273.1L0.133469 274.852C164.939 160.622 272.963 145.429 402.005 156.028C276.344 148.314 167.341 169.382 0.133467 289.681L0.133466 291.455C176.06 164.681 287.442 147.844 421.511 158.848C291.023 150.835 178.528 173.848 0.133464 306.797L0.133463 308.592C187.469 168.763 302.032 150.301 440.994 161.69C305.813 153.399 189.938 178.378 0.133461 324.382L0.13346 326.198C199.146 172.887 316.778 152.737 460.477 164.532C322.472 156.07 204.595 182.267 7.60636 336.54C5.11527 338.506 2.62442 340.429 0.133457 342.331L0.133457 344.147C2.93583 342.01 5.73807 339.831 8.54044 337.63C214.314 176.455 333.614 155.344 479.96 167.352C341.955 158.891 224.078 185.087 27.0895 339.361C18.0152 346.455 9.02982 353.271 0.133454 359.809L0.133454 361.583C9.34122 354.852 18.6377 347.822 28.0235 340.472C233.797 179.297 353.098 158.186 499.443 170.194C361.438 161.733 243.561 187.929 46.5725 342.203C30.8482 354.532 15.3461 365.942 0.111113 376.562L0.111112 378.314C15.6575 367.502 31.4485 355.878 47.4843 343.314C253.258 182.139 372.558 161.028 518.904 173.036C380.899 164.575 263.022 190.771 66.0334 345.045C43.5478 362.651 21.5514 378.442 0.088893 392.63L0.0888927 394.361C21.8406 380.023 44.1483 363.997 66.9676 346.134C272.741 184.959 392.041 163.848 538.387 175.857C400.382 167.395 282.505 193.592 85.5164 347.865C56.1582 370.856 27.6454 390.75 0.0888903 407.993L0.08889 409.681C27.9568 392.309 56.781 372.203 86.4505 348.976C292.224 187.801 411.525 166.69 557.87 178.699C419.865 170.237 301.988 196.434 105 350.707C68.6801 379.147 33.6283 402.908 0.0888877 422.694L0.0888874 424.339C33.9174 404.425 69.2807 380.515 105.934 351.797C311.707 190.622 431.008 169.511 577.353 181.519C439.348 173.058 321.471 199.254 124.483 353.527C81.0683 387.545 39.4555 414.809 0.0667905 436.647L0.0667902 438.271C39.7224 416.327 81.6466 388.891 125.395 354.617C331.168 193.442 450.468 172.331 596.814 184.34C458.809 175.878 340.932 202.075 143.943 356.348C93.2785 396.027 45.1045 426.54 0.0443273 449.938L0.044327 451.54C45.3715 428.057 93.8792 397.374 144.856 357.438C350.629 196.263 469.929 175.152 616.275 187.16C478.27 178.699 360.393 204.895 163.404 359.168C105.378 404.617 50.5537 438.079 0.0222303 462.544L0.0222301 464.104C50.8428 439.574 105.956 405.985 164.338 360.258C370.112 199.083 489.412 177.972 635.758 189.981C497.753 181.519 379.876 207.716 182.887 361.989C117.299 413.356 55.8471 449.382 0.0222283 474.446L0.022228 476.006C56.1139 450.899 117.899 414.703 183.822 363.079C389.662 202.032 508.962 180.899 655.308 192.908C517.303 184.446 399.425 210.643 202.437 364.916C129.131 422.331 60.9624 460.6 0.0888767 485.792L0.0888764 487.331C61.2516 462.117 129.731 423.698 203.371 366.027C409.145 204.852 528.445 183.741 674.791 195.75C536.786 187.288 418.909 213.485 221.92 367.758C140.696 431.369 65.7888 471.497 0.0667801 496.348L0.0667798 497.844C66.0335 472.972 141.275 432.737 222.832 368.848C428.606 207.673 547.906 186.562 694.252 198.57C556.247 190.109 438.369 216.305 241.381 370.579C152.017 440.579 70.2814 482.138 0.0443174 506.177L0.0443172 507.673C70.5482 483.613 152.595 441.946 242.315 371.69C448.089 210.515 567.389 189.404 713.735 201.412C575.73 192.951 457.852 219.147 260.864 373.421C163.093 450.002 74.4627 492.544 0.0443158 515.344L0.0443156 516.818C74.7295 493.997 163.693 451.348 261.798 374.51C467.572 213.335 586.872 192.224 733.218 204.233C595.213 195.771 477.336 221.968 280.347 376.241C173.902 459.617 78.2881 502.651 0.0443144 523.784L0.0443141 525.237C78.5549 504.083 174.502 460.985 281.281 377.331C487.055 216.156 606.355 195.045 752.701 207.053C614.696 198.592 496.819 224.788 299.83 379.062C184.355 469.489 81.6465 512.459 0.0222183 531.519L0.022218 532.95C81.9135 513.891 184.956 470.856 300.742 380.151C506.516 218.976 625.816 197.865 772.162 209.874C634.157 201.412 516.28 227.609 319.291 381.882C194.43 479.66 84.4933 521.968 -0.000121813 538.527L-0.00012207 540.002L0.0888672 540.002Z" fill="white" fill-opacity="0.3"/>
</svg>
