<svg width="1920" height="463" viewBox="0 0 1920 463" fill="none" xmlns="http://www.w3.org/2000/svg">
<path fill-rule="evenodd" clip-rule="evenodd" d="M1919.91 462.403C1835.39 448.223 1725.39 411.94 1600.52 327.993C1345.41 156.44 1223.58 170.163 1017.54 193.363C992.033 196.236 965.235 199.255 936.885 202.073C933.402 202.42 929.942 202.768 926.503 203.134L921.157 203.793C914.635 204.616 908.158 205.439 901.725 206.226C895.203 207.05 888.725 207.873 882.292 208.66C875.77 209.483 869.293 210.306 862.86 211.093C856.338 211.917 849.86 212.74 843.427 213.527C836.905 214.35 830.428 215.173 823.995 215.96C817.473 216.784 810.996 217.607 804.562 218.394C798.041 219.217 791.563 220.04 785.13 220.827C778.608 221.651 772.131 222.474 765.697 223.261C592.402 245.345 451.406 252.719 293.95 124.804C217.528 62.7226 116.129 25.2503 15.994 3.40362C10.6478 2.2326 5.32388 1.11648 -8.26921e-05 0.0552368L6.1003 0.0552358C9.51651 0.768828 12.9327 1.5007 16.3711 2.23257C116.706 24.1158 218.349 61.698 294.992 123.926C420.926 226.225 536.39 241.704 666.428 232.446C543.91 238.758 433.437 219.876 313.404 122.371C236.983 60.2891 135.584 22.8167 35.4487 0.970087C34.0068 0.659052 32.5648 0.347986 31.1229 0.0369209L36.9128 0.03692C136.892 21.9568 238.092 59.484 314.425 121.493C440.359 223.791 555.822 239.271 685.86 230.012C563.342 236.325 452.87 217.442 332.837 119.937C258.124 59.2644 159.541 22.0848 61.6248 0.0369157L67.1485 0.0369148C163.601 22.2678 260.275 59.2827 333.879 119.077C459.813 221.376 575.277 236.855 705.315 227.597C582.73 233.873 472.258 214.991 352.225 117.467C280.196 58.9534 185.962 22.3044 91.5278 0.000320049L96.8074 0.000319146C189.822 22.4508 282.281 58.9534 353.245 116.607C479.179 218.906 594.643 234.385 724.681 225.127C602.163 231.44 491.691 212.557 371.657 115.052C302.179 58.6058 212.049 22.5057 121.009 0.000315009L126.067 0.000314145C215.732 22.6338 304.198 58.5509 372.7 114.192C498.634 216.491 614.097 231.97 744.135 222.712C621.618 229.024 511.145 210.142 391.112 112.637C324.074 58.1849 237.826 22.6521 150.069 0.0186511L154.95 0.0186503C241.375 22.7619 326.071 58.0934 392.155 111.777C518.089 214.076 633.552 229.555 763.59 220.297C641.072 226.609 530.6 207.727 410.567 110.222C345.88 57.6725 263.292 22.7619 178.73 0.0186462L183.433 0.0186454C266.709 22.8167 347.832 57.5445 411.609 109.343C537.543 211.642 653.007 227.121 783.045 217.863C660.527 224.176 550.055 205.293 430.021 107.788C367.598 57.0688 288.492 22.7801 207.014 0.0186414L211.561 0.0186406C291.776 22.835 369.483 56.9224 431.064 106.928C556.998 209.227 672.461 224.706 802.499 215.448C679.982 221.76 569.509 202.878 449.476 105.373C389.226 56.4283 313.449 22.7801 234.987 0.0186366L239.379 0.0186358C316.621 22.7984 391.09 56.2271 450.496 104.495C576.43 206.793 691.894 222.273 821.932 213.014C699.414 219.327 588.942 200.444 468.908 102.939C410.766 55.7148 338.161 22.7253 262.649 0.0186319L266.908 0.0186311C341.244 22.7253 412.607 55.4952 469.951 102.079C595.885 204.378 711.349 219.858 841.386 210.599C718.869 216.912 608.396 198.029 488.363 100.524C432.262 54.9463 362.673 22.6337 290.045 0.0368767L294.171 0.036876C365.69 22.6337 434.081 54.7267 489.406 99.6643C615.34 201.963 730.803 217.442 860.841 208.184C738.323 214.496 627.851 195.614 507.818 98.109C453.691 54.1412 387.008 22.5056 317.153 0.0368721L321.168 0.0368714C389.936 22.4873 455.465 53.8851 508.86 97.2491C634.794 199.548 750.258 215.027 880.296 205.769C757.778 212.081 647.306 193.199 527.272 95.6938C475.053 53.2813 411.188 22.3593 344.017 0.055178L347.921 0.0551773C414.027 22.3227 476.806 53.0068 528.293 94.8339C654.227 197.133 769.69 212.612 899.728 203.354C777.211 209.666 666.738 190.784 546.705 93.2786C496.371 52.3847 435.168 22.158 370.659 0.0551735L374.452 0.0551728C437.941 22.1214 498.101 52.092 547.747 92.4186C673.681 194.717 789.145 210.197 919.183 200.938C796.665 207.251 686.193 188.368 566.159 90.8634C517.623 51.4516 459.037 21.9384 397.079 0.073449L400.806 0.0734483C461.765 21.8835 519.353 51.1405 567.202 90.0034C693.136 192.302 808.6 207.781 938.638 198.523C816.12 204.836 705.647 185.953 585.614 88.4481C538.852 50.4635 482.751 21.7005 423.3 0.0734445L426.916 0.0734439C485.39 21.609 540.56 50.1342 586.657 87.5699C712.591 189.869 828.054 205.348 958.092 196.09C835.574 202.402 725.102 183.52 605.069 86.0147C560.037 49.4389 506.331 21.4078 449.321 0.07344L452.87 0.0734394C508.927 21.3163 561.723 49.0912 606.111 85.1547C732.045 187.453 847.509 202.933 977.547 193.674C855.029 199.987 744.557 181.104 624.523 83.5994C581.178 48.3959 529.801 21.0967 475.164 0.0734356L478.625 0.073435C532.33 21.0052 582.841 48.03 625.544 82.7212C751.478 185.02 866.941 200.499 996.979 191.241C874.462 197.553 763.989 178.671 643.956 81.1659C602.274 47.2981 553.138 20.7491 500.83 0.0734312L504.202 0.0734307C555.622 20.6393 603.893 46.9321 644.976 80.306C770.91 182.605 886.374 198.084 1016.41 188.826C893.894 195.138 783.422 176.256 663.388 78.7507C623.148 46.1088 576.186 20.31 526.141 0.000245761L529.468 0.000245192C578.649 20.2002 624.768 45.7245 664.254 77.7993C790.188 180.098 905.651 195.577 1035.69 186.319C913.171 192.631 802.699 173.749 682.666 76.244C644.156 44.9744 599.323 19.944 551.474 0.000241431L554.713 0.000240877C601.697 19.8159 645.753 44.5719 683.686 75.3841C809.62 177.683 925.084 193.162 1055.12 183.904C932.604 190.216 822.131 171.334 702.098 73.8288C665.141 43.8034 622.35 19.5415 576.674 0.0185782L579.847 0.0185776C624.701 19.4134 666.738 43.4008 703.141 72.9688C829.075 175.268 944.538 190.747 1074.58 181.489C952.058 187.801 841.586 168.919 721.553 71.4136C686.082 42.5958 645.265 19.1024 601.697 0.000232846L604.825 0.000232312C647.616 18.956 687.679 42.1932 722.573 70.5353C848.507 172.834 963.971 188.313 1094.01 179.055C971.491 185.368 861.019 166.485 740.985 68.9801C707.023 41.3882 668.136 18.6632 626.609 0.0185697L629.67 0.0185691C670.421 18.5169 708.598 40.9673 742.006 68.1201C879.741 180.007 1004.94 188.039 1150.38 173.438C1156.25 172.688 1162.18 171.956 1168.14 171.224C1174.58 170.401 1181.06 169.595 1187.58 168.79C1194.01 167.967 1200.49 167.162 1207.01 166.357C1213.44 165.533 1219.92 164.728 1226.44 163.923C1232.88 163.1 1239.35 162.295 1245.87 161.49C1252.31 160.667 1258.79 159.861 1265.31 159.056C1271.74 158.233 1278.22 157.428 1284.74 156.623C1291.17 155.799 1297.65 154.994 1304.17 154.189C1329.88 150.914 1356.37 147.767 1383.72 145.041C1412.25 142.205 1438.96 139.204 1464.36 136.331C1632.91 117.339 1745.22 104.714 1919.87 194.241L1919.87 195.669C1786.95 127.402 1690.2 118.364 1577.34 126.323C1687.45 120.523 1784.75 133.733 1919.87 206.903L1919.87 208.367C1776.76 130.732 1676.18 120.431 1557.9 128.756C1673.23 122.682 1774.5 137.466 1919.87 220.132L1919.87 221.614C1766.27 134.117 1662.03 122.48 1538.47 131.19C1658.88 124.841 1763.92 141.217 1919.87 233.855L1919.87 235.355C1755.49 137.539 1647.75 124.53 1519.04 133.605C1644.37 127 1753.09 145.041 1919.87 248.053L1919.87 249.572C1744.4 141.015 1633.3 126.597 1499.58 136.02C1629.73 129.159 1741.94 148.865 1919.87 262.709L1919.87 264.246C1733.02 144.51 1618.75 128.701 1480.15 138.454C1614.98 131.355 1730.56 152.744 1919.87 277.767L1919.87 279.323C1721.37 148.041 1604.04 130.787 1460.72 140.887C1598.37 133.642 1715.94 156.074 1912.41 288.178C1914.9 289.862 1917.38 291.509 1919.87 293.137L1919.87 294.692C1917.07 292.863 1914.28 290.996 1911.48 289.112C1706.24 151.097 1587.25 133.02 1441.29 143.303C1578.93 136.057 1696.5 158.489 1892.98 290.594C1902.03 296.668 1910.99 302.505 1919.87 308.104L1919.87 309.623C1910.68 303.859 1901.41 297.839 1892.05 291.545C1686.81 153.531 1567.82 135.453 1421.85 145.736C1559.5 138.49 1677.07 160.923 1873.55 293.027C1889.23 303.585 1904.69 313.355 1919.89 322.449L1919.89 323.949C1904.38 314.691 1888.63 304.737 1872.64 293.979C1667.4 155.964 1548.41 137.887 1402.44 148.17C1540.09 140.924 1657.66 163.356 1854.14 295.461C1876.57 310.537 1898.5 324.059 1919.91 336.208L1919.91 337.69C1898.22 325.413 1875.97 311.69 1853.21 296.394C1647.97 158.379 1528.98 140.302 1383.01 150.585C1520.66 143.339 1638.23 165.771 1834.71 297.876C1863.99 317.564 1892.43 334.598 1919.91 349.364L1919.91 350.809C1892.12 335.934 1863.37 318.716 1833.77 298.827C1628.53 160.813 1509.54 142.735 1363.58 153.018C1501.23 145.773 1618.8 168.205 1815.27 300.309C1851.5 324.663 1886.46 345.009 1919.91 361.952L1919.91 363.361C1886.17 346.308 1850.9 325.834 1814.34 301.243C1609.1 163.228 1490.11 145.151 1344.15 155.434C1481.79 148.188 1599.36 170.62 1795.84 302.725C1839.14 331.854 1880.65 355.201 1919.93 373.9L1919.93 375.291C1880.38 356.5 1838.57 333.006 1794.93 303.658C1589.69 165.643 1470.7 147.566 1324.74 157.849C1462.38 150.603 1579.95 173.035 1776.43 305.14C1826.96 339.117 1875.01 365.246 1919.96 385.281L1919.96 386.653C1874.75 366.545 1826.36 340.27 1775.52 306.073C1570.28 168.058 1451.29 149.981 1305.33 160.264C1442.97 153.018 1560.54 175.45 1757.02 307.555C1814.9 346.473 1869.58 375.126 1919.98 396.076L1919.98 397.412C1869.29 376.407 1814.32 347.644 1756.09 308.488C1550.85 170.474 1431.86 152.396 1285.89 162.679C1423.54 155.434 1541.11 177.866 1737.59 309.97C1803.01 353.956 1864.3 384.805 1919.98 406.268L1919.98 407.603C1864.03 386.104 1802.41 355.109 1736.66 310.903C1531.35 172.999 1412.36 154.903 1266.39 165.186C1404.04 157.94 1521.61 180.372 1718.09 312.477C1791.2 361.641 1859.2 394.411 1919.91 415.983L1919.91 417.301C1858.91 395.71 1790.61 362.812 1717.16 313.428C1511.92 175.414 1392.93 157.336 1246.96 167.619C1384.61 160.374 1502.18 182.806 1698.66 314.911C1779.67 369.381 1854.38 403.743 1919.93 425.022L1919.93 426.303C1854.14 405.005 1779.09 370.552 1697.75 315.844C1492.51 177.829 1373.52 159.752 1227.55 170.035C1365.2 162.789 1482.77 185.221 1679.25 317.326C1768.38 377.267 1849.9 412.855 1919.96 433.439L1919.96 434.72C1849.64 414.117 1767.8 378.438 1678.31 318.277C1473.08 180.263 1354.08 162.185 1208.12 172.468C1345.77 165.222 1463.34 187.655 1659.81 319.759C1757.33 385.336 1845.73 421.765 1919.96 441.288L1919.96 442.551C1845.46 423.009 1756.73 386.489 1658.88 320.692C1453.64 182.678 1334.65 164.6 1188.69 174.883C1326.33 167.638 1443.9 190.07 1640.38 322.174C1746.55 393.569 1841.92 430.42 1919.96 448.515L1919.96 449.76C1841.65 431.646 1745.95 394.74 1639.45 323.108C1434.21 185.093 1315.22 167.016 1169.25 177.299C1306.9 170.053 1424.47 192.485 1620.95 324.59C1736.12 402.023 1838.57 438.818 1919.98 455.139L1919.98 456.365C1838.3 440.044 1735.52 403.194 1620.04 325.523C1414.8 187.508 1295.81 169.431 1149.84 179.714C1287.49 172.468 1405.06 194.9 1601.54 327.005C1726.07 410.732 1835.73 446.96 1920 461.14L1920 462.403L1919.91 462.403Z" fill="white" fill-opacity="0.3"/>
</svg>
