<svg width="1920" height="438" viewBox="0 0 1920 438" fill="none" xmlns="http://www.w3.org/2000/svg">
<path fill-rule="evenodd" clip-rule="evenodd" d="M-0.411354 438C84.1066 424.568 194.113 390.2 318.982 310.683C574.089 148.184 695.919 161.182 901.957 183.159C927.467 185.88 954.265 188.739 982.615 191.408C986.098 191.738 989.558 192.067 992.997 192.414L998.343 193.038C1004.86 193.817 1011.34 194.597 1017.78 195.343C1024.3 196.123 1030.77 196.902 1037.21 197.648C1043.73 198.428 1050.21 199.208 1056.64 199.953C1063.16 200.733 1069.64 201.513 1076.07 202.258C1082.59 203.038 1089.07 203.818 1095.51 204.563C1102.03 205.343 1108.5 206.123 1114.94 206.868C1121.46 207.648 1127.94 208.428 1134.37 209.173C1140.89 209.953 1147.37 210.733 1153.8 211.478C1327.1 232.397 1468.09 239.382 1625.55 118.218C1701.97 59.4124 1803.37 23.9177 1903.51 3.22399C1908.85 2.11478 1914.18 1.05755 1919.5 0.0523302L1913.4 0.0523291C1909.98 0.728254 1906.57 1.42149 1903.13 2.11475C1802.79 22.8431 1701.15 58.4418 1624.51 117.386C1498.57 214.286 1383.11 228.948 1253.07 220.179C1375.59 226.158 1486.06 208.272 1606.1 115.913C1682.52 57.1073 1783.92 21.6126 1884.05 0.918895C1885.49 0.624261 1886.94 0.32961 1888.38 0.0349764L1882.59 0.0349754C1782.61 20.798 1681.41 56.3447 1605.08 115.081C1479.14 211.981 1363.68 226.643 1233.64 217.874C1356.16 223.853 1466.63 205.967 1586.66 113.608C1661.38 56.1368 1759.96 20.9193 1857.88 0.0349711L1852.35 0.0349701C1755.9 21.0926 1659.22 56.1541 1585.62 112.793C1459.69 209.693 1344.22 224.355 1214.19 215.586C1336.77 221.53 1447.24 203.644 1567.28 111.268C1639.3 55.8421 1733.54 21.1273 1827.97 0.000311463L1822.69 0.00031054C1729.68 21.2659 1637.22 55.8421 1566.25 110.453C1440.32 207.353 1324.86 222.016 1194.82 213.246C1317.34 219.225 1427.81 201.339 1547.84 108.98C1617.32 55.5128 1707.45 21.3179 1798.49 0.000306309L1793.43 0.000305424C1703.77 21.4393 1615.3 55.4608 1546.8 108.166C1420.87 205.066 1305.4 219.728 1175.36 210.958C1297.88 216.938 1408.35 199.052 1528.39 106.693C1595.43 55.1142 1681.67 21.4566 1769.43 0.0176496L1764.55 0.0176487C1678.12 21.5606 1593.43 55.0275 1527.35 105.878C1401.41 202.778 1285.95 217.44 1155.91 208.671C1278.43 214.65 1388.9 196.764 1508.93 104.405C1573.62 54.6289 1656.21 21.5606 1740.77 0.0176446L1736.07 0.0176437C1652.79 21.6126 1571.67 54.5076 1507.89 103.573C1381.96 200.473 1266.49 215.135 1136.46 206.365C1258.97 212.345 1369.45 194.459 1489.48 102.1C1551.9 54.057 1631.01 21.5779 1712.49 0.0176396L1707.94 0.0176388C1627.72 21.6299 1550.02 53.9183 1488.44 101.285C1362.5 198.185 1247.04 212.847 1117 204.078C1239.52 210.057 1349.99 192.171 1470.02 99.8119C1530.27 53.4503 1606.05 21.5779 1684.51 0.0176347L1680.12 0.017634C1602.88 21.5952 1528.41 53.2597 1469 98.98C1343.07 195.88 1227.61 210.542 1097.57 201.773C1220.09 207.752 1330.56 189.866 1450.59 97.5068C1508.73 52.7744 1581.34 21.5259 1656.85 0.0176299L1652.59 0.0176291C1578.26 21.5259 1506.89 52.5664 1449.55 96.6922C1323.61 193.592 1208.15 208.255 1078.11 199.485C1200.63 205.464 1311.1 187.578 1431.14 95.2191C1487.24 52.0465 1556.83 21.4392 1629.45 0.0349311L1625.33 0.0349304C1553.81 21.4392 1485.42 51.8385 1430.09 94.4045C1304.16 191.304 1188.7 205.967 1058.66 197.197C1181.18 203.176 1291.65 185.29 1411.68 92.9313C1465.81 51.2839 1532.49 21.3179 1602.35 0.0349264L1598.33 0.0349257C1529.56 21.3006 1464.03 51.0413 1410.64 92.1167C1284.71 189.017 1169.24 203.679 1039.2 194.909C1161.72 200.889 1272.19 183.003 1392.23 90.6436C1444.45 50.4693 1508.31 21.1793 1575.48 0.05227L1571.58 0.0522694C1505.47 21.1446 1442.69 50.2094 1391.21 89.829C1265.27 186.729 1149.81 201.391 1019.77 192.622C1142.29 198.601 1252.76 180.715 1372.8 88.3558C1423.13 49.6201 1484.33 20.9886 1548.84 0.0522654L1545.05 0.0522647C1481.56 20.9539 1421.4 49.3428 1371.75 87.5413C1245.82 184.441 1130.36 199.104 1000.32 190.334C1122.83 196.313 1233.31 178.427 1353.34 86.0681C1401.88 48.7362 1460.46 20.7806 1522.42 0.0695668L1518.69 0.0695661C1457.73 20.7286 1400.15 48.4415 1352.3 85.2535C1226.36 182.153 1110.9 196.816 980.862 188.046C1103.38 194.025 1213.85 176.139 1333.89 83.7803C1380.65 47.8003 1436.75 20.5553 1496.2 0.0695622L1492.58 0.0695616C1434.11 20.4686 1378.94 47.4883 1332.84 82.9484C1206.91 179.848 1091.45 194.511 961.408 185.741C1083.93 191.72 1194.4 173.834 1314.43 81.4753C1359.46 46.8297 1413.17 20.278 1470.18 0.0695577L1466.63 0.069557C1410.57 20.1913 1357.78 46.5004 1313.39 80.6606C1187.45 177.561 1071.99 192.223 941.953 183.453C1064.47 189.433 1174.94 171.547 1294.98 79.1875C1338.32 45.8418 1389.7 19.9833 1444.34 0.0695531L1440.88 0.0695525C1387.17 19.8967 1336.66 45.4952 1293.96 78.3556C1168.02 175.256 1052.56 189.918 922.521 181.148C1045.04 187.128 1155.51 169.242 1275.54 76.8824C1317.23 44.802 1366.36 19.654 1418.67 0.0695487L1415.3 0.0695481C1363.88 19.5501 1315.61 44.4553 1274.52 76.0678C1148.59 172.968 1033.13 187.63 903.088 178.86C1025.61 184.84 1136.08 166.954 1256.11 74.5946C1296.35 43.6754 1343.31 19.2381 1393.36 0.000235473L1390.03 0.000234891C1340.85 19.1341 1294.73 43.3114 1255.25 73.6934C1129.31 170.593 1013.85 185.256 883.811 176.486C1006.33 182.465 1116.8 164.579 1236.83 72.2202C1275.34 42.6008 1320.18 18.8915 1368.03 0.000231044L1364.79 0.000230478C1317.8 18.7702 1273.75 42.2196 1235.81 71.4057C1109.88 168.306 994.416 182.968 864.378 174.198C986.896 180.178 1097.37 162.292 1217.4 69.9325C1254.36 41.4916 1297.15 18.5102 1342.83 0.017575L1339.65 0.0175744C1294.8 18.3889 1252.76 41.1103 1216.36 69.1179C1090.43 166.018 974.962 180.68 844.924 171.91C967.442 177.89 1077.91 160.004 1197.95 67.6447C1233.42 40.3478 1274.24 18.0942 1317.8 0.000222263L1314.68 0.000221716C1271.88 17.9556 1231.82 39.9665 1196.93 66.8128C1070.99 163.713 955.529 178.375 825.491 169.605C948.009 175.585 1058.48 157.699 1178.51 65.3397C1212.48 39.2039 1251.36 17.6783 1292.89 0.0175663L1289.83 0.0175657C1249.08 17.5396 1210.9 38.8053 1177.49 64.5251C1039.76 170.507 914.557 178.115 769.124 164.285C763.245 163.574 757.322 162.881 751.355 162.188C744.922 161.408 738.444 160.645 731.923 159.882C725.489 159.103 719.012 158.34 712.49 157.577C706.057 156.797 699.58 156.035 693.058 155.272C686.625 154.492 680.147 153.73 673.625 152.967C667.192 152.187 660.715 151.425 654.193 150.662C647.76 149.882 641.282 149.12 634.76 148.357C628.327 147.577 621.85 146.815 615.328 146.052C589.617 142.95 563.131 139.969 535.779 137.386C507.251 134.7 480.543 131.858 455.143 129.137C286.595 111.146 174.281 99.1878 -0.3669 183.99L-0.3669 185.342C132.555 120.679 229.296 112.117 342.164 119.656C232.046 114.162 134.751 126.675 -0.366902 195.984L-0.366903 197.37C142.737 123.833 243.315 114.075 361.596 121.961C246.266 116.207 145 130.211 -0.366905 208.514L-0.366905 209.918C153.23 127.039 257.468 116.017 381.029 124.266C260.618 118.252 155.581 133.764 -0.366907 221.513L-0.366907 222.934C164.011 130.28 271.754 117.958 400.461 126.554C275.126 120.297 166.406 137.386 -0.366909 234.962L-0.366909 236.401C175.102 133.573 286.196 119.916 419.916 128.842C289.767 122.343 177.565 141.008 -0.366912 248.845L-0.366912 250.3C186.482 136.884 300.748 121.909 439.348 131.147C304.519 124.422 188.945 144.683 -0.366914 263.108L-0.366914 264.581C198.128 140.229 315.455 123.885 458.781 133.452C321.134 126.589 203.563 147.837 7.08655 272.97C4.60203 274.564 2.1176 276.124 -0.366917 277.667L-0.366917 279.14C2.42817 277.407 5.22321 275.639 8.01829 273.854C213.257 143.123 332.248 125.999 478.213 135.74C340.567 128.876 222.996 150.125 26.5192 275.258C17.4684 281.012 8.50636 286.54 -0.366919 291.844L-0.366919 293.282C8.81693 287.823 18.0894 282.121 27.4507 276.159C232.69 145.428 351.68 128.305 497.646 138.045C359.999 131.182 242.428 152.43 45.9516 277.563C30.268 287.563 14.8063 296.818 -0.389235 305.432L-0.389235 306.853C15.1168 298.083 30.8669 288.655 46.861 278.464C252.1 147.733 371.091 130.61 517.056 140.35C379.409 133.487 261.838 154.735 65.3619 279.868C42.9346 294.149 20.9955 306.957 -0.411333 318.465L-0.411334 319.869C21.2838 308.239 43.5336 295.241 66.2936 280.752C271.533 150.021 390.523 132.897 536.489 142.638C398.842 135.774 281.271 157.023 84.7942 282.156C55.5124 300.804 27.0736 316.94 -0.411336 330.926L-0.411336 332.295C27.3842 318.205 56.1336 301.896 85.726 283.057C290.965 152.326 409.956 135.202 555.921 144.943C418.274 138.08 300.703 159.328 104.227 284.461C68.0017 307.529 33.0409 326.801 -0.411338 342.85L-0.411338 344.185C33.3293 328.032 68.6007 308.638 105.159 285.345C310.398 154.614 429.388 137.49 575.354 147.231C437.707 140.367 320.136 161.616 123.659 286.748C80.3576 314.34 38.853 336.455 -0.433436 354.168L-0.433437 355.485C39.1192 337.685 80.9345 315.432 124.569 287.632C329.808 156.901 448.798 139.778 594.764 149.518C457.117 142.655 339.546 163.903 143.07 289.036C92.5362 321.221 44.4874 345.97 -0.455751 364.948L-0.455752 366.248C44.7536 347.2 93.1353 322.312 143.979 289.92C349.218 159.189 468.209 142.066 614.174 151.806C476.527 144.943 358.956 166.191 162.48 291.324C104.604 328.188 49.9224 355.329 -0.47785 375.173L-0.47785 376.438C50.2108 356.542 105.181 329.297 163.412 292.208C368.651 161.477 487.641 144.354 633.607 154.094C495.96 147.231 378.389 168.479 181.912 293.612C116.494 335.276 55.202 364.497 -0.477851 384.827L-0.477852 386.092C55.4682 365.728 117.093 336.368 182.844 294.496C388.15 163.869 507.14 146.728 653.106 156.468C515.459 149.605 397.888 170.853 201.411 295.986C128.296 342.556 60.3041 373.596 -0.411347 394.03L-0.411347 395.278C60.5925 374.827 128.895 343.665 202.343 296.887C407.582 166.156 526.573 149.033 672.538 158.773C534.891 151.91 417.32 173.158 220.844 298.291C139.831 349.887 65.1179 382.435 -0.433445 402.592L-0.433445 403.805C65.3619 383.631 140.408 350.996 221.753 299.175C426.992 168.444 545.983 151.321 691.949 161.061C554.302 154.198 436.731 175.446 240.254 300.579C151.122 357.357 69.5988 391.066 -0.455759 410.564L-0.45576 411.777C69.865 392.262 151.699 358.466 241.186 301.48C446.425 170.749 565.416 153.626 711.381 163.366C573.734 156.503 456.163 177.751 259.687 302.884C162.169 365 73.7692 399.507 -0.455761 417.999L-0.455761 419.195C74.0354 400.685 162.768 366.092 260.618 303.768C465.857 173.037 584.848 155.914 730.813 165.654C593.167 158.791 475.596 180.039 279.119 305.172C172.95 372.799 77.5847 407.704 -0.455762 424.845L-0.455762 426.024C77.8509 408.866 173.549 373.908 280.051 306.056C485.29 175.325 604.28 158.201 750.246 167.942C612.599 161.078 495.028 182.327 298.552 307.459C183.376 380.806 80.9345 415.659 -0.477859 431.119L-0.47786 432.28C81.2007 416.821 183.975 381.915 299.461 308.343C504.7 177.613 623.691 160.489 769.656 170.229C632.009 163.366 514.439 184.614 317.962 309.747C193.425 389.056 83.7738 423.372 -0.500174 436.804L-0.500174 438L-0.411354 438Z" fill="white" fill-opacity="0.3"/>
</svg>
