<svg width="11" height="16" viewBox="0 0 11 16" fill="none" xmlns="http://www.w3.org/2000/svg">
<path d="M5.50168 16C5.59896 16 5.68954 15.9584 5.75328 15.8912C5.96798 15.6544 11 10.0928 11 5.2448C11 2.352 8.53431 0 5.50168 0C2.46905 0 0 2.352 0 5.2448C0 10.0928 5.03202 15.6544 5.24672 15.8912C5.30711 15.9584 5.40439 16 5.50168 16ZM2.53278 5.2448C2.53278 3.6864 3.86459 2.416 5.50168 2.416C7.13876 2.416 8.47057 3.6864 8.47057 5.2448C8.47057 6.8064 7.13876 8.0768 5.50168 8.0768C3.86459 8.0768 2.53278 6.8064 2.53278 5.2448Z" fill="#D6B380"/>
</svg>
