<svg width="14" height="10" viewBox="0 0 14 10" fill="none" xmlns="http://www.w3.org/2000/svg">
<path d="M13.4165 0H0.583578C0.262601 0 0 0.271885 0 0.604V9.39596C0 9.72819 0.262601 10 0.583578 10H13.4165C13.7374 10 14 9.72819 14 9.39596V0.604C14 0.271847 13.7374 0 13.4165 0ZM9.13253 5.41954C10.2154 6.17528 13.0136 8.41732 13.0136 8.41732C13.1251 8.49549 13.1331 8.6959 13.0773 8.81531C13.0215 8.93475 12.8472 9.00743 12.7357 8.92931C12.7357 8.92931 9.75712 6.70333 8.61736 5.89573C8.55429 5.85106 8.49843 5.90468 8.49843 5.90468L7.24869 6.93678C7.18035 6.99483 7.09025 7.02681 6.99515 7.02681C6.90005 7.02681 6.80998 6.99483 6.74157 6.93678L5.47747 5.89258C5.47747 5.89258 5.43394 5.85332 5.38444 5.88884C4.2578 6.69831 1.29218 8.92927 1.29218 8.92927C1.18076 9.00743 0.968758 8.93475 0.913012 8.81527C0.857267 8.6959 0.865236 8.49545 0.976651 8.41728C0.976651 8.41728 3.77839 6.18224 4.84401 5.43043C4.90487 5.38748 4.84101 5.32433 4.84101 5.32433L0.889444 1.64174C0.745777 1.51984 0.702774 1.30153 0.791523 1.1447C0.844223 1.0514 0.93707 0.995681 1.03976 0.995681C1.11209 0.995681 1.18505 1.02381 1.24523 1.07486L6.86494 6.17271C6.89813 6.20084 6.94557 6.21703 6.99515 6.21703C7.04473 6.21703 7.09217 6.20084 7.1254 6.17271L12.7451 1.07486C12.8053 1.02377 12.8782 0.995681 12.9506 0.995681C13.0533 0.995681 13.1461 1.0514 13.1988 1.1447C13.2875 1.30153 13.2445 1.51988 13.1009 1.64174L9.13884 5.33581C9.13884 5.33581 9.08299 5.38487 9.13253 5.41954Z" fill="#D6B380"/>
</svg>
