<svg width="16" height="15" viewBox="0 0 16 15" fill="none" xmlns="http://www.w3.org/2000/svg">
<path fill-rule="evenodd" clip-rule="evenodd" d="M15.7071 13.194C15.6009 13.2933 15.4727 13.4203 15.3369 13.5546C14.9979 13.8919 14.5744 14.3112 14.309 14.4812C12.9125 15.3759 11.0442 14.9478 9.72269 14.4316C7.97937 13.7506 6.08136 12.4953 4.37716 10.8973C2.67136 9.29923 1.33261 7.51919 0.606236 5.88567C0.0562613 4.64641 -0.401311 2.89444 0.553114 1.58486C0.734355 1.33583 1.18262 0.939412 1.54191 0.620982C1.68566 0.494008 1.82002 0.374036 1.92627 0.274748C2.11489 0.0987828 2.37016 0 2.63625 0C2.90234 0 3.15761 0.0987828 3.34624 0.274748L5.91574 2.68309C6.10333 2.85992 6.20862 3.09919 6.20862 3.34859C6.20862 3.59799 6.10333 3.83725 5.91574 4.01409L5.21578 4.66902C4.98201 4.88659 4.82942 5.1691 4.78073 5.47453C4.73203 5.77995 4.78982 6.09195 4.94551 6.3641C5.90827 8.06774 7.39459 9.46101 9.21187 10.3634C9.50208 10.5093 9.8348 10.5634 10.1605 10.5177C10.4861 10.4719 10.7874 10.3288 11.0192 10.1096L11.7175 9.45459C11.9061 9.27863 12.1614 9.17984 12.4275 9.17984C12.6936 9.17984 12.9488 9.27863 13.1374 9.45459L15.7071 11.8633C15.8947 12.0401 16 12.2793 16 12.5287C16 12.7781 15.8947 13.0173 15.7071 13.194Z" fill="#D6B380"/>
</svg>
