<svg width="30" height="30" viewBox="0 0 30 30" fill="none" xmlns="http://www.w3.org/2000/svg">
<path fill-rule="evenodd" clip-rule="evenodd" d="M18.6681 17.588C18.5134 18.0221 17.7709 18.4177 17.4137 18.4711C17.094 18.5189 16.689 18.5386 16.2437 18.398C15.9737 18.3118 15.6278 18.1974 15.1853 18.0061C13.3215 17.2018 12.1037 15.3258 12.0109 15.2021C11.9181 15.0783 11.2525 14.1952 11.2525 13.2811C11.2525 12.3671 11.7325 11.9171 11.9031 11.7314C12.0728 11.5458 12.2743 11.4989 12.3981 11.4989C12.5218 11.4989 12.6456 11.4999 12.7543 11.5055C12.8687 11.5111 13.0215 11.4624 13.1725 11.8243C13.3271 12.1964 13.6984 13.1105 13.7453 13.2033C13.7912 13.2961 13.8221 13.4049 13.7603 13.5286C13.6984 13.6524 13.6675 13.7302 13.5746 13.8389C13.4818 13.9468 13.3796 14.0808 13.2962 14.1643C13.2034 14.2561 13.1059 14.3574 13.2146 14.543C13.3234 14.7286 13.6956 15.3371 14.2478 15.8293C14.9575 16.4621 15.5565 16.658 15.7421 16.7518C15.9278 16.8446 16.0365 16.8286 16.1443 16.7049C16.2531 16.5811 16.6093 16.163 16.7331 15.9764C16.8568 15.7908 16.9806 15.8218 17.1512 15.8836C17.3209 15.9455 18.235 16.3946 18.4206 16.4883C18.6062 16.5811 18.73 16.6271 18.7768 16.7049C18.8228 16.7827 18.8228 17.1539 18.6681 17.588ZM15.0334 8.75488C11.6246 8.75488 8.85152 11.5261 8.85059 14.9321C8.85059 16.0993 9.17684 17.2364 9.79559 18.2199L9.94277 18.4533L9.3184 20.7333L11.6575 20.1202L11.8825 20.2533C12.8312 20.8168 13.9187 21.1149 15.0278 21.1149H15.0306C18.4365 21.1149 21.2087 18.3436 21.2106 14.9368C21.2106 13.2858 20.5693 11.7343 19.4021 10.5661C18.235 9.39895 16.6834 8.75488 15.0334 8.75488Z" fill="#D3D8DB"/>
<path fill-rule="evenodd" clip-rule="evenodd" d="M15.0309 22.3706H15.0281C13.7831 22.3706 12.5606 22.0584 11.475 21.4659L7.53281 22.5L8.58844 18.6478C7.93781 17.5209 7.59469 16.2422 7.59563 14.9316C7.5975 10.8337 10.9322 7.5 15.0309 7.5C17.0194 7.5 18.8869 8.27437 20.2903 9.67969C21.6938 11.0841 22.4672 12.9516 22.4663 14.9381C22.4644 19.0359 19.1287 22.3706 15.0309 22.3706ZM15 0C6.71531 0 0 6.71531 0 15C0 23.2838 6.71531 30 15 30C23.2838 30 30 23.2838 30 15C30 6.71531 23.2838 0 15 0Z" fill="#D3D8DB"/>
</svg>
