<svg width="464" height="100" viewBox="0 0 464 100" fill="none" xmlns="http://www.w3.org/2000/svg">
<path d="M0 0V16.4508H1.413C1.67821 12.8163 2.42078 10.0076 3.64071 8.02476C4.74783 6.13165 6.34836 4.57524 8.27116 3.52198C10.2784 2.52963 12.4576 1.93286 14.6901 1.76417C17.1406 1.52852 27.7191 1.4107 30.5451 1.4107V69.3441H22.4935V70.6561H54.5088V69.3441H46.47V1.4107C49.2928 1.4107 59.8362 1.52852 62.274 1.76417C64.5281 1.95169 66.7222 2.58717 68.728 3.63343C70.6119 4.70844 72.1659 6.27881 73.2216 8.17442C74.397 10.1934 75.1533 12.9532 75.4907 16.4539H76.9037V0H0Z" fill="#0F337A"/>
<path d="M46.4704 69.3427V64.531C44.2143 64.4797 41.9856 64.0257 39.8891 63.1903C37.7471 62.344 35.7842 61.1004 34.1034 59.5251C32.6592 58.1679 31.457 56.574 30.5486 54.8121V67.846C31.3849 68.3279 32.2525 68.7535 33.1455 69.1197C35.664 70.1535 38.3636 70.6731 41.0857 70.6483C43.6885 70.6874 46.2786 70.278 48.7426 69.4382L48.9813 69.349L46.4704 69.3427ZM45.4297 8.6761C45.7777 8.67397 46.1255 8.69631 46.4704 8.74297V7.23674C45.5589 7.02163 44.6254 6.91474 43.6889 6.9183C41.9657 6.8953 40.2519 7.17554 38.6257 7.74625C37.2093 8.24417 35.9051 9.01682 34.7876 10.0199C33.7517 10.9655 32.9199 12.1131 32.3435 13.3922C31.7685 14.6526 31.4722 16.0223 31.4747 17.4078C31.5227 18.7542 31.8015 20.0823 32.299 21.3342C32.857 22.85 33.4531 24.2756 34.0875 25.6109C34.8428 27.184 35.7158 28.8144 36.7066 30.5022C35.3187 31.1852 33.9771 31.9585 32.6904 32.8173C32.0094 33.2822 31.287 33.8108 30.5327 34.4095V40.0395C31.1923 38.5311 32.0038 37.0939 32.9546 35.7501C34.1685 34.1303 35.5749 32.6642 37.1426 31.3843C40.1638 36.5855 43.2731 41.5564 46.4704 46.2969V31.0244C45.6907 29.8462 41.824 24.0187 41.0602 22.729C40.3984 21.5835 39.8003 20.4024 39.2685 19.1911C38.7496 18.0845 38.4677 16.8816 38.4411 15.6596C38.4242 14.7378 38.5933 13.8222 38.938 12.9673C39.2828 12.1124 39.7963 11.3358 40.4477 10.684C41.0992 10.0321 41.8753 9.51836 42.7296 9.17337C43.584 8.82838 44.499 8.65926 45.4202 8.6761H45.4297Z" fill="#061D3F"/>
<path d="M87.7843 65.4189C86.8806 66.3843 85.8875 67.2618 84.8183 68.0397C83.7726 68.741 82.6622 69.3403 81.5022 69.8293C80.1775 70.3893 78.7521 70.6711 77.3141 70.6573C75.217 70.682 73.1378 70.2676 71.2102 69.4408C69.5135 68.7227 67.9036 67.8146 66.4111 66.7341C64.8078 65.6011 63.3433 64.2832 62.0479 62.8077C60.5132 64.3379 58.7829 65.6582 56.9019 66.7341C55.0125 67.8181 53.0267 68.7242 50.9699 69.4408C48.4998 70.289 45.9017 70.7027 43.2906 70.6637C40.5696 70.6885 37.871 70.1688 35.3536 69.1351C32.9895 68.1703 30.8297 66.7656 28.9887 64.9954C27.1898 63.2569 25.7514 61.1802 24.7561 58.8845C23.7348 56.5451 23.2144 54.0176 23.2285 51.4647C23.2051 49.27 23.6049 47.0913 24.406 45.0481C25.1455 43.1814 26.129 41.421 27.3307 39.8129C28.4425 38.3244 29.7146 36.9628 31.1242 35.7528C32.3331 34.7053 33.5996 33.7261 34.9176 32.8199C36.2043 31.9639 37.5448 31.1917 38.9307 30.508C37.9399 28.8096 37.0668 27.1803 36.3115 25.6199C35.675 24.2825 35.0789 22.8569 34.523 21.3432C34.0232 20.0908 33.7432 18.7614 33.6956 17.4136C33.692 16.0267 33.9895 14.6555 34.5675 13.3949C35.1443 12.1197 35.9762 10.9763 37.0117 10.0353C38.1285 9.03212 39.433 8.26042 40.8497 7.76482C42.4744 7.19204 44.1873 6.91067 45.9098 6.93368C48.757 6.93368 51.0685 7.77756 52.8443 9.4653C53.7002 10.2522 54.3798 11.2115 54.8383 12.2802C55.2969 13.3488 55.524 14.5025 55.5048 15.6654C55.5158 17.373 55.0147 19.0446 54.0664 20.4643C53.1704 21.8469 52.1009 23.1087 50.8839 24.2188C49.5049 25.4713 47.9827 26.5563 46.3489 27.451C47.9741 29.9539 49.5876 32.3953 51.1894 34.7751C52.7913 37.155 54.4154 39.5136 56.0618 41.8509C57.7209 44.1862 59.4373 46.5427 61.2109 48.9204C62.9846 51.2981 64.8601 53.7395 66.8375 56.2446C68.2732 54.4545 69.4753 52.4888 70.4146 50.3948C71.4789 48.1233 72.3684 45.7738 73.0751 43.3667C73.9699 40.3106 74.5112 37.1618 74.6886 33.9822C74.4201 34.4782 74.0655 34.9224 73.6415 35.2942C73.2453 35.6737 72.7881 35.9837 72.289 36.2113C71.6716 36.4858 71.0009 36.6196 70.3255 36.603C69.2695 36.6175 68.2332 36.3164 67.3491 35.7384C66.465 35.1604 65.7734 34.3316 65.3625 33.3581C64.9517 32.3846 64.8404 31.3106 65.0429 30.2735C65.2454 29.2363 65.7524 28.2832 66.4992 27.536C67.246 26.7888 68.1985 26.2814 69.235 26.0788C70.2715 25.8762 71.3448 25.9875 72.3177 26.3986C73.2906 26.8097 74.1188 27.5018 74.6965 28.3864C75.2742 29.271 75.575 30.308 75.5606 31.3646C75.6074 34.9701 75.1707 38.5655 74.2621 42.0547C73.5354 44.8243 72.5718 47.5262 71.382 50.1305C70.2548 52.5907 68.8814 54.9305 67.283 57.1139C68.6178 58.9081 70.079 60.6044 71.6557 62.1899C72.9182 63.4576 74.2898 64.6117 75.7547 65.6386C77.208 66.6576 78.604 67.1671 79.9428 67.1671C80.9599 67.1778 81.9734 67.0448 82.9534 66.7723C83.7544 66.5511 84.5291 66.2436 85.2638 65.8552C86.0151 65.5106 86.7189 65.0707 87.3579 64.5464L87.7843 65.4189ZM49.3977 64.5464C50.9911 64.5592 52.5824 64.4281 54.1523 64.1547C55.408 63.9359 56.6469 63.6294 57.8598 63.2376C59.0073 62.9167 60.1185 62.4781 61.1759 61.9288C56.9355 57.499 53.0694 52.7251 49.6173 47.6562C46.0975 42.5037 42.6806 37.0764 39.3667 31.3742C37.7973 32.6525 36.3908 34.1187 35.1786 35.74C34.0353 37.3713 33.0838 39.129 32.343 40.9784C31.4625 43.1994 31.0298 45.5728 31.0701 47.9619C31.0625 50.1341 31.5399 52.2806 32.4671 54.2447C33.4015 56.2325 34.7038 58.0251 36.3052 59.5277C37.9906 61.1047 39.9591 62.3484 42.1068 63.193C44.4267 64.1117 46.9028 64.5713 49.3977 64.5464ZM47.6538 8.67875C46.7324 8.66101 45.8169 8.82952 44.9621 9.17419C44.1074 9.51886 43.3309 10.0326 42.6793 10.6846C42.0277 11.3367 41.5142 12.1136 41.1698 12.9689C40.8253 13.8242 40.6569 14.7402 40.6747 15.6622C40.7005 16.8854 40.9824 18.0895 41.5021 19.1969C42.0341 20.4066 42.6312 21.5865 43.2906 22.7316C44.0828 24.0652 44.9575 25.3478 45.9098 26.5721C47.4683 25.7471 48.9305 24.7517 50.2697 23.6042C51.407 22.58 52.4178 21.4232 53.2803 20.1586C54.1851 18.8359 54.6577 17.2649 54.6328 15.6622C54.6506 14.7402 54.4822 13.8242 54.1377 12.9689C53.7932 12.1136 53.2798 11.3367 52.6282 10.6846C51.9766 10.0326 51.2001 9.51886 50.3454 9.17419C49.4906 8.82952 48.5751 8.66101 47.6538 8.67875Z" fill="#D6B380"/>
<path d="M101.994 39.9087C101.149 37.7935 99.9358 35.8452 98.4104 34.1544C96.9478 32.5556 95.2462 31.1935 93.3663 30.1166C91.5356 29.0639 89.6103 28.1854 87.6156 27.4926C85.6958 26.8433 83.7209 26.37 81.7153 26.0787C80.029 25.8305 78.3278 25.6964 76.6234 25.6775C75.4799 25.6775 74.2875 25.6934 73.0464 25.7253C71.7989 25.7603 70.5004 25.8144 69.1606 25.8781C66.4025 26.0777 63.9807 26.1838 61.8951 26.1966H48.4047L46.3457 27.4703L46.4539 27.62H52.211V95.5279H44.1753V96.824H76.3879V95.5152H68.3491V71.5014L68.7437 71.546C70.2522 71.7116 71.766 71.8177 73.2851 71.8644C75.7119 71.9346 78.1407 71.8505 80.5569 71.6129C84.4921 71.2539 88.3246 70.1575 91.8546 68.3807C95.269 66.6443 98.1461 64.0099 100.177 60.7603C102.298 57.4294 103.359 53.0381 103.359 47.5864C103.408 44.9626 102.944 42.3546 101.994 39.9087ZM86.053 56.7161C85.5565 59.3308 84.545 61.8206 83.0774 64.0403C81.6636 66.1276 79.6888 67.7725 77.3809 68.7851C75.874 69.4385 74.2739 69.8512 72.639 70.0079C71.8409 70.0931 71.0389 70.1367 70.2363 70.1385C69.6274 70.1385 68.9983 70.1236 68.3491 70.0939V27.4035C70.577 27.1327 72.8359 27.2861 75.0068 27.8556C77.2333 28.4339 79.2794 29.5616 80.9579 31.1356C82.7083 32.749 84.1383 34.9028 85.2479 37.5968C86.3575 40.2908 86.9112 43.6557 86.9091 47.6914C86.9285 50.7209 86.6416 53.7445 86.053 56.7161Z" fill="#0F337A"/>
<path d="M68.3494 36.926C67.9496 36.9218 67.5516 36.8738 67.1623 36.7827C66.2482 36.5785 65.4126 36.114 64.7564 35.4452C63.8054 34.4266 63.2764 33.0847 63.2764 31.6908C63.2764 30.2968 63.8054 28.9549 64.7564 27.9363C65.4129 27.2685 66.2485 26.8051 67.1623 26.602C67.5521 26.5141 67.9499 26.4661 68.3494 26.4587V36.926Z" fill="#061D3F"/>
<path d="M75.5698 31.3717C75.6126 34.9743 75.1727 38.5665 74.2618 42.0522C73.5382 44.8207 72.58 47.5224 71.3976 50.128C70.7587 51.5048 70.0502 52.8482 69.2749 54.1531H68.9885V53.1659C69.4913 52.3167 69.9698 51.4017 70.4238 50.4209C71.4866 48.1488 72.3759 45.7994 73.0843 43.3929C73.9773 40.3353 74.5186 37.1857 74.6978 34.0052C74.4311 34.5015 74.0763 34.945 73.6508 35.314C73.2556 35.6955 72.7982 36.0068 72.2982 36.2343C71.6818 36.5085 71.0122 36.6423 70.3379 36.626C69.8839 36.6292 69.4312 36.58 68.9885 36.4795C68.0743 36.2753 67.2388 35.8108 66.5826 35.142C65.6315 34.1235 65.1025 32.7815 65.1025 31.3876C65.1025 29.9937 65.6315 28.6517 66.5826 27.6332C67.2391 26.9654 68.0746 26.502 68.9885 26.2989C69.4312 26.1983 69.8839 26.1492 70.3379 26.1524C71.0307 26.1296 71.7209 26.2493 72.3657 26.504C73.0105 26.7587 73.5963 27.143 74.0868 27.6332C74.3231 27.8713 74.5362 28.1315 74.7233 28.4102C75.1393 29.0418 75.408 29.759 75.5093 30.5087C75.5486 30.7947 75.5688 31.083 75.5698 31.3717Z" fill="#D6B380"/>
<path d="M126.599 7.12012H124.424V100H126.599V7.12012Z" fill="#D6B380"/>
<path d="M149.066 82.5373L148.035 85.5211H146.634L150.504 74.7705H151.853L155.672 85.5211H154.272L153.247 82.5373H149.066ZM151.153 76.4614L149.489 81.305H152.808L151.153 76.4614Z" fill="#D6B380"/>
<path d="M158.74 84.2123C158.74 84.2123 158.74 84.2123 158.74 84.1964C158.89 84.0194 158.964 83.7907 158.947 83.5595V74.7705H164.993V84.2123H166.47V87.2726H165.448V85.4925H158.081V87.2726H157.06V84.2123H158.74ZM163.708 84.2123V76.022H160.185V83.6328C160.187 83.8275 160.167 84.0218 160.127 84.2123H163.708Z" fill="#D6B380"/>
<path d="M172.756 74.768C173.582 74.7258 174.394 74.9926 175.035 75.5164C175.319 75.7662 175.543 76.0762 175.692 76.4237C175.842 76.7713 175.912 77.1477 175.897 77.5257C175.913 78.0823 175.755 78.6298 175.445 79.0925C175.135 79.5348 174.671 79.8449 174.144 79.9618C174.472 79.9796 174.793 80.0626 175.089 80.2059C175.385 80.3491 175.65 80.5499 175.868 80.7965C176.085 81.043 176.252 81.3305 176.357 81.642C176.463 81.9536 176.506 82.2831 176.483 82.6113C176.502 83.0115 176.433 83.411 176.281 83.7818C176.129 84.1526 175.898 84.4856 175.604 84.7576C174.93 85.3204 174.069 85.6091 173.192 85.5664H168.867V74.8158V74.768H172.756ZM174.055 79.0033C174.223 78.839 174.353 78.6399 174.437 78.4199C174.521 78.1999 174.555 77.9643 174.538 77.7295C174.548 77.5029 174.509 77.2768 174.423 77.0668C174.338 76.8568 174.207 76.6679 174.042 76.5131C173.653 76.191 173.158 76.0273 172.654 76.0545H170.153V79.4491H172.699C173.192 79.473 173.677 79.3092 174.055 78.9906V79.0033ZM174.583 83.8309C174.918 83.4592 175.1 82.9741 175.092 82.4735C175.083 81.9729 174.886 81.4941 174.538 81.1337C174.145 80.8074 173.645 80.6393 173.135 80.6624H170.169V84.3181H173.297C173.773 84.3301 174.234 84.1552 174.583 83.8309Z" fill="#D6B380"/>
<path d="M181.768 84.9736C180.965 84.4923 180.313 83.7964 179.884 82.9642C179.443 82.096 179.213 81.1359 179.213 80.1619C179.213 79.1879 179.443 78.2277 179.884 77.3596C180.314 76.528 180.966 75.8323 181.768 75.3502C182.595 74.8726 183.533 74.6211 184.488 74.6211C185.442 74.6211 186.38 74.8726 187.207 75.3502C188.003 75.8468 188.653 76.5456 189.091 77.3755C189.532 78.2436 189.762 79.2038 189.762 80.1778C189.762 81.1518 189.532 82.112 189.091 82.9801C188.653 83.8193 187.991 84.5208 187.178 85.0069C186.366 85.493 185.436 85.7449 184.489 85.7346V85.706C183.532 85.718 182.59 85.4645 181.768 84.9736ZM186.491 83.9227C187.08 83.5417 187.551 83.0034 187.85 82.3687C188.166 81.6812 188.33 80.9332 188.33 80.1762C188.33 79.4192 188.166 78.6712 187.85 77.9837C187.536 77.3549 187.062 76.82 186.475 76.4329C185.871 76.0544 185.17 75.8586 184.457 75.8693C183.749 75.8552 183.053 76.0513 182.456 76.4329C181.861 76.81 181.386 77.3477 181.084 77.9837C180.743 78.6642 180.572 79.4169 180.584 80.1778C180.575 80.9356 180.741 81.6853 181.068 82.3687C181.366 83.0041 181.837 83.5426 182.427 83.9227C183.024 84.3048 183.72 84.501 184.429 84.4863H184.489C185.193 84.4979 185.885 84.3018 186.478 83.9227H186.491Z" fill="#D6B380"/>
<path d="M193.053 80.0567V85.5211H191.78V74.7705H193.053V79.5981L197.264 74.7705H198.928L194.514 79.7955L199.192 85.5275H197.451L193.053 80.0567Z" fill="#D6B380"/>
<path d="M203.24 82.5373L202.216 85.5211H200.815L204.682 74.7705H206.012L209.831 85.5211H208.428L207.403 82.5373H203.24ZM205.331 76.4614L203.664 81.305H206.996L205.331 76.4614Z" fill="#D6B380"/>
<path d="M215.165 76.0345V85.5209H213.892V76.0345H211.146V74.7607H217.94V76.0345H215.165Z" fill="#D6B380"/>
<path d="M222.049 84.9878C221.273 84.5155 220.646 83.8348 220.238 83.023C219.786 82.1365 219.56 81.1521 219.579 80.1571C219.562 79.1623 219.788 78.1783 220.238 77.2911C220.644 76.4747 221.272 75.7899 222.05 75.3159C222.829 74.842 223.725 74.5983 224.636 74.613C225.607 74.5884 226.566 74.8413 227.399 75.3422C228.174 75.8465 228.772 76.5816 229.107 77.4439L228.054 78.0808C227.78 77.428 227.33 76.8638 226.756 76.4504C226.138 76.0535 225.415 75.8526 224.681 75.874C224.025 75.8684 223.381 76.0472 222.822 76.3899C222.233 76.7517 221.762 77.2758 221.463 77.8993C221.128 78.6137 220.954 79.3933 220.954 80.1825C220.954 80.9718 221.128 81.7513 221.463 82.4658C221.763 83.0887 222.234 83.6125 222.822 83.9752C223.38 84.3235 224.024 84.5078 224.681 84.507C225.411 84.5352 226.132 84.336 226.744 83.9367C227.356 83.5374 227.83 82.9578 228.099 82.2779L229.165 82.9148C228.827 83.7806 228.223 84.5165 227.44 85.0165C226.661 85.5036 225.758 85.7567 224.84 85.7457H224.732C223.785 85.7415 222.858 85.4795 222.049 84.9878Z" fill="#D6B380"/>
<path d="M232.614 80.0567V85.5211H231.341V74.7705H232.614V79.5981L236.824 74.7705H238.489L234.075 79.7955L238.753 85.5275H237.012L232.614 80.0567Z" fill="#D6B380"/>
<path d="M243.692 84.9736C242.888 84.4934 242.235 83.7972 241.808 82.9642C241.364 82.0968 241.133 81.1363 241.133 80.1619C241.133 79.1876 241.364 78.2271 241.808 77.3596C242.236 76.5274 242.889 75.8315 243.692 75.3503C244.518 74.8726 245.455 74.6211 246.409 74.6211C247.364 74.6211 248.301 74.8726 249.127 75.3503C249.924 75.8468 250.575 76.5456 251.014 77.3756C251.456 78.2437 251.686 79.2039 251.686 80.1779C251.686 81.1518 251.456 82.112 251.014 82.9802C250.575 83.8191 249.912 84.5203 249.1 85.0064C248.287 85.4924 247.356 85.7445 246.409 85.7347V85.706C245.453 85.7182 244.512 85.4646 243.692 84.9736ZM248.411 83.9228C249.001 83.5427 249.472 83.0041 249.77 82.3688C250.089 81.6818 250.254 80.9336 250.254 80.1763C250.254 79.4189 250.089 78.6707 249.77 77.9838C249.456 77.3557 248.983 76.821 248.399 76.433C247.794 76.0544 247.094 75.8587 246.381 75.8693C245.672 75.8543 244.976 76.0505 244.379 76.433C243.783 76.8091 243.306 77.3469 243.004 77.9838C242.667 78.6652 242.496 79.4174 242.508 80.1779C242.498 80.9357 242.664 81.6854 242.992 82.3688C243.29 83.0041 243.761 83.5427 244.35 83.9228C244.947 84.3052 245.644 84.5014 246.352 84.4864H246.409C247.118 84.5014 247.815 84.3052 248.411 83.9228Z" fill="#D6B380"/>
<path d="M260.088 85.5211H253.879V74.7705H259.942V76.022H255.168V79.3848H259.509V80.633H255.168V84.2728H260.092L260.088 85.5211Z" fill="#D6B380"/>
<path d="M270.116 76.0952V79.3115H272.805C273.365 79.3053 273.918 79.4251 274.425 79.6618C274.909 79.8911 275.316 80.2562 275.596 80.7127C275.9 81.2394 276.051 81.8404 276.032 82.4482C276.051 83.051 275.9 83.647 275.596 84.1678C275.316 84.6242 274.909 84.9893 274.425 85.2186C273.918 85.4539 273.364 85.5736 272.805 85.5689H268.827V74.7705H275.743V76.0952H270.116ZM272.662 80.5534H270.091V84.2824H272.637C273.141 84.2938 273.635 84.1332 274.037 83.827C274.239 83.654 274.398 83.4354 274.5 83.189C274.602 82.9427 274.644 82.6757 274.622 82.41C274.622 81.7518 274.432 81.2795 274.053 80.9929C273.654 80.6954 273.169 80.5376 272.672 80.5439L272.662 80.5534Z" fill="#D6B380"/>
<path d="M282.097 80.6046H280.287V85.5213H279.014V74.7707H280.287V79.3563H282.126C282.214 78.6573 282.43 77.9804 282.763 77.3596C283.192 76.5281 283.845 75.8324 284.647 75.3503C285.473 74.8726 286.41 74.6211 287.364 74.6211C288.319 74.6211 289.256 74.8726 290.082 75.3503C290.879 75.8468 291.53 76.5456 291.969 77.3756C292.411 78.2437 292.641 79.2039 292.641 80.1779C292.641 81.1518 292.411 82.112 291.969 82.9802C291.53 83.8191 290.867 84.5203 290.055 85.0064C289.242 85.4924 288.311 85.7445 287.364 85.7347V85.706C286.408 85.7182 285.467 85.4646 284.647 84.9736C283.844 84.4924 283.191 83.7965 282.763 82.9642C282.375 82.2341 282.149 81.4296 282.097 80.6046ZM289.36 83.9228C289.95 83.5427 290.421 83.0041 290.719 82.3688C291.037 81.6818 291.203 80.9336 291.203 80.1763C291.203 79.4189 291.037 78.6707 290.719 77.9838C290.399 77.3589 289.922 76.8285 289.334 76.4457C288.73 76.0672 288.029 75.8714 287.317 75.8821C286.608 75.8675 285.912 76.0636 285.315 76.4457C284.719 76.8218 284.242 77.3597 283.94 77.9965C283.602 78.6779 283.432 79.4301 283.444 80.1906C283.434 80.9484 283.6 81.6982 283.927 82.3815C284.226 83.0169 284.697 83.5554 285.286 83.9355C285.883 84.3179 286.58 84.5141 287.288 84.4991H287.345C288.059 84.5129 288.761 84.3121 289.36 83.9228Z" fill="#D6B380"/>
<path d="M298.933 74.7707C299.493 74.7656 300.048 74.8853 300.556 75.1209C301.038 75.3515 301.444 75.7164 301.724 76.1718C302.031 76.6927 302.183 77.2902 302.163 77.8946C302.181 78.5028 302.029 79.1039 301.724 79.6301C301.444 80.0855 301.038 80.4504 300.556 80.681C300.048 80.9166 299.493 81.0363 298.933 81.0312H296.244V85.5531H294.971V74.7707H298.933ZM300.206 79.3403C300.585 79.0569 300.775 78.5824 300.775 77.9233C300.797 77.658 300.756 77.3912 300.654 77.1453C300.552 76.8994 300.393 76.6814 300.19 76.5094C299.789 76.1992 299.293 76.0373 298.786 76.0508H296.24V79.783H298.812C299.313 79.7927 299.802 79.6371 300.206 79.3403Z" fill="#D6B380"/>
<path d="M307.265 84.9736C306.461 84.4925 305.807 83.7966 305.377 82.9642C304.936 82.0961 304.706 81.1359 304.706 80.1619C304.706 79.188 304.936 78.2278 305.377 77.3596C305.808 76.5279 306.462 75.8322 307.265 75.3503C308.091 74.8726 309.028 74.6211 309.982 74.6211C310.937 74.6211 311.874 74.8726 312.7 75.3503C313.497 75.846 314.147 76.5451 314.584 77.3756C315.028 78.243 315.259 79.2035 315.259 80.1779C315.259 81.1523 315.028 82.1127 314.584 82.9802C314.146 83.8194 313.484 84.5208 312.672 85.007C311.859 85.4931 310.929 85.745 309.982 85.7347V85.706C309.026 85.7182 308.085 85.4646 307.265 84.9736ZM311.984 83.9228C312.574 83.5427 313.045 83.0041 313.343 82.3688C313.662 81.6818 313.827 80.9336 313.827 80.1763C313.827 79.4189 313.662 78.6707 313.343 77.9838C313.029 77.3549 312.555 76.82 311.968 76.433C311.365 76.0545 310.666 75.8588 309.954 75.8693C309.245 75.8543 308.549 76.0505 307.952 76.433C307.356 76.8091 306.879 77.3469 306.577 77.9838C306.239 78.6652 306.069 79.4174 306.081 80.1779C306.07 80.9354 306.235 81.6852 306.561 82.3688C306.86 83.0035 307.331 83.5418 307.92 83.9228C308.518 84.3048 309.216 84.5009 309.925 84.4864H309.982C310.691 84.501 311.387 84.3048 311.984 83.9228Z" fill="#D6B380"/>
<path d="M324.901 85.5211H323.628V74.7705H329.694V76.022H324.92L324.901 85.5211Z" fill="#D6B380"/>
<path d="M334.87 84.9736C334.067 84.4923 333.415 83.7964 332.986 82.9642C332.544 82.096 332.314 81.1359 332.314 80.1619C332.314 79.1879 332.544 78.2277 332.986 77.3596C333.416 76.528 334.068 75.8323 334.87 75.3502C335.697 74.8726 336.634 74.6211 337.589 74.6211C338.544 74.6211 339.482 74.8726 340.309 75.3502C341.104 75.8468 341.755 76.5456 342.193 77.3755C342.634 78.2436 342.864 79.2038 342.864 80.1778C342.864 81.1518 342.634 82.112 342.193 82.9801C341.754 83.8193 341.092 84.5208 340.28 85.0069C339.468 85.493 338.537 85.7449 337.591 85.7346V85.706C336.634 85.7185 335.692 85.465 334.87 84.9736ZM339.593 83.9227C340.182 83.5417 340.652 83.0034 340.951 82.3687C341.268 81.6812 341.432 80.9332 341.432 80.1762C341.432 79.4192 341.268 78.6712 340.951 77.9837C340.637 77.3549 340.163 76.82 339.577 76.4329C338.972 76.0544 338.272 75.8586 337.559 75.8693C336.851 75.8552 336.154 76.0513 335.557 76.4329C334.962 76.8092 334.487 77.3471 334.186 77.9837C333.845 78.6642 333.673 79.4169 333.686 80.1778C333.677 80.9356 333.842 81.6853 334.17 82.3687C334.468 83.0041 334.939 83.5426 335.529 83.9227C336.125 84.3048 336.822 84.501 337.53 84.4863H337.591C338.299 84.5004 338.996 84.3043 339.593 83.9227Z" fill="#D6B380"/>
<path d="M348.929 74.7707C349.489 74.7656 350.044 74.8853 350.552 75.1209C351.034 75.3523 351.439 75.717 351.72 76.1718C352.027 76.6927 352.179 77.2902 352.159 77.8946C352.175 78.5037 352.019 79.1049 351.711 79.6301C351.43 80.0849 351.024 80.4496 350.543 80.681C350.034 80.9166 349.48 81.0363 348.92 81.0312H346.23V85.5531H344.958V74.7707H348.929ZM350.202 79.3403C350.584 79.0569 350.775 78.5824 350.775 77.9233C350.796 77.658 350.754 77.3916 350.652 77.1458C350.551 76.9 350.392 76.6819 350.189 76.5094C349.787 76.2013 349.292 76.0396 348.786 76.0508H346.24V79.783H348.815C349.312 79.7917 349.799 79.6362 350.199 79.3403H350.202Z" fill="#D6B380"/>
<path d="M357.261 84.9736C356.456 84.4934 355.803 83.7973 355.373 82.9642C354.932 82.0961 354.702 81.1359 354.702 80.1619C354.702 79.188 354.932 78.2278 355.373 77.3596C355.803 76.5272 356.457 75.8313 357.261 75.3503C358.087 74.8726 359.024 74.6211 359.978 74.6211C360.933 74.6211 361.87 74.8726 362.696 75.3503C363.492 75.8469 364.142 76.5457 364.58 77.3756C365.022 78.2437 365.252 79.2039 365.252 80.1779C365.252 81.1518 365.022 82.112 364.58 82.9802C364.142 83.8194 363.48 84.5208 362.668 85.007C361.856 85.4931 360.925 85.745 359.978 85.7347V85.706C359.022 85.7185 358.081 85.465 357.261 84.9736ZM361.98 83.9228C362.57 83.5427 363.041 83.0041 363.339 82.3688C363.656 81.6813 363.82 80.9333 363.82 80.1763C363.82 79.4193 363.656 78.6713 363.339 77.9838C363.025 77.3549 362.551 76.82 361.964 76.433C361.361 76.0549 360.662 75.8591 359.95 75.8693C359.241 75.8549 358.543 76.051 357.945 76.433C357.351 76.8101 356.875 77.3477 356.573 77.9838C356.236 78.6652 356.065 79.4174 356.077 80.1779C356.066 80.9354 356.231 81.6852 356.557 82.3688C356.856 83.0041 357.326 83.5427 357.916 83.9228C358.513 84.3043 359.21 84.5004 359.918 84.4864H359.978C360.687 84.501 361.383 84.3048 361.98 83.9228Z" fill="#D6B380"/>
<path d="M368.616 84.2123C368.616 84.2123 368.616 84.2123 368.616 84.1964C368.765 84.0191 368.838 83.7903 368.82 83.5595V74.7705H374.866V84.2123H376.343V87.2726H375.318V85.4925H367.954V87.2726H366.929V84.2123H368.616ZM373.584 84.2123V76.022H370.061V83.6328C370.063 83.8275 370.043 84.0218 370.003 84.2123H373.584Z" fill="#D6B380"/>
<path d="M380.321 82.5373L379.299 85.5211H377.896L381.769 74.7705H383.096L386.915 85.5211H385.511L384.486 82.5373H380.321ZM382.411 76.4614L380.744 81.305H384.076L382.411 76.4614Z" fill="#D6B380"/>
<path d="M405.207 85.5211H403.995V77.1779L400.812 82.1425H399.858L396.675 77.1779V85.5211H395.459V74.7705H396.583L400.338 80.633L404.081 74.7705H405.204L405.207 85.5211Z" fill="#D6B380"/>
<path d="M410.777 84.9736C409.974 84.4934 409.321 83.7972 408.893 82.9642C408.45 82.0968 408.218 81.1363 408.218 80.1619C408.218 79.1876 408.45 78.2271 408.893 77.3596C409.322 76.5274 409.974 75.8315 410.777 75.3503C411.603 74.8726 412.541 74.6211 413.495 74.6211C414.449 74.6211 415.387 74.8726 416.213 75.3503C417.01 75.8468 417.661 76.5456 418.1 77.3756C418.541 78.2437 418.771 79.2039 418.771 80.1779C418.771 81.1518 418.541 82.112 418.1 82.9802C417.66 83.8191 416.998 84.5203 416.185 85.0064C415.373 85.4924 414.442 85.7445 413.495 85.7347V85.706C412.539 85.7182 411.598 85.4646 410.777 84.9736ZM415.497 83.9228C416.086 83.5427 416.557 83.0041 416.856 82.3688C417.174 81.6818 417.339 80.9336 417.339 80.1763C417.339 79.4189 417.174 78.6707 416.856 77.9838C416.542 77.3557 416.069 76.821 415.484 76.433C414.88 76.0544 414.179 75.8587 413.466 75.8693C412.758 75.8543 412.061 76.0505 411.465 76.433C410.869 76.8091 410.392 77.3469 410.09 77.9838C409.752 78.6652 409.582 79.4174 409.593 80.1779C409.584 80.9357 409.749 81.6854 410.077 82.3688C410.375 83.0041 410.846 83.5427 411.436 83.9228C412.032 84.3052 412.729 84.5014 413.438 84.4864H413.495C414.203 84.5014 414.9 84.3052 415.497 83.9228Z" fill="#D6B380"/>
<path d="M423.157 84.988C422.381 84.5149 421.752 83.8344 421.343 83.0232C420.891 82.1366 420.664 81.1522 420.684 80.1572C420.666 79.1624 420.893 78.1785 421.343 77.2912C421.749 76.4755 422.378 75.7914 423.156 75.3175C423.934 74.8437 424.83 74.5995 425.741 74.6131C426.712 74.5874 427.671 74.8405 428.503 75.3423C429.278 75.848 429.876 76.5826 430.215 77.4441L429.162 78.081C428.887 77.4272 428.437 76.8626 427.86 76.4505C427.243 76.0532 426.519 75.8523 425.785 75.8741C425.131 75.8692 424.488 76.0479 423.93 76.39C423.34 76.7508 422.868 77.2752 422.571 77.8994C422.234 78.6133 422.059 79.393 422.059 80.1827C422.059 80.9723 422.234 81.7521 422.571 82.4659C422.869 83.0895 423.341 83.6137 423.93 83.9753C424.486 84.323 425.129 84.5073 425.785 84.5071C426.516 84.5346 427.237 84.3351 427.849 83.936C428.462 83.5368 428.936 82.9576 429.206 82.278L430.272 82.9149C429.935 83.7807 429.331 84.5167 428.548 85.0166C427.768 85.5034 426.866 85.7564 425.948 85.7459H425.83C424.887 85.7404 423.962 85.4784 423.157 84.988Z" fill="#D6B380"/>
<path d="M433.722 80.0567V85.5211H432.449V74.7705H433.722V79.5981L437.929 74.7705H439.597L435.183 79.7955L439.858 85.5275H438.12L433.722 80.0567Z" fill="#D6B380"/>
<path d="M446.229 74.7681C447.055 74.7253 447.867 74.9921 448.507 75.5165C448.791 75.7663 449.016 76.0763 449.165 76.4239C449.314 76.7714 449.384 77.1479 449.37 77.5258C449.385 78.0824 449.227 78.63 448.918 79.0926C448.609 79.5356 448.144 79.8459 447.616 79.9619C447.945 79.9797 448.266 80.0627 448.562 80.206C448.858 80.3493 449.123 80.55 449.34 80.7966C449.558 81.0432 449.724 81.3306 449.83 81.6422C449.936 81.9537 449.978 82.2832 449.955 82.6114C449.974 83.0116 449.906 83.4111 449.754 83.7819C449.602 84.1527 449.371 84.4858 449.077 84.7577C448.404 85.3197 447.544 85.6084 446.668 85.5665H442.34V74.8159V74.7681H446.229ZM447.53 79.0034C447.698 78.8388 447.828 78.6396 447.911 78.4196C447.994 78.1996 448.028 77.9642 448.011 77.7297C448.021 77.503 447.982 77.277 447.896 77.067C447.81 76.857 447.68 76.668 447.514 76.5132C447.126 76.1911 446.631 76.0274 446.127 76.0546H443.626V79.4492H446.171C446.662 79.4704 447.142 79.3067 447.518 78.9907L447.53 79.0034ZM448.055 83.831C448.229 83.658 448.365 83.4504 448.453 83.2216C448.541 82.9928 448.58 82.748 448.568 82.5031C448.582 82.2478 448.54 81.9925 448.444 81.7556C448.347 81.5188 448.2 81.3064 448.011 81.1338C447.618 80.8075 447.118 80.6395 446.607 80.6625H443.641V84.3182H446.77H446.754C447.231 84.3325 447.694 84.1573 448.043 83.831H448.055Z" fill="#D6B380"/>
<path d="M452.499 85.553V74.7705H453.772V79.3115H456.461C457.02 79.3053 457.574 79.4251 458.081 79.6618C458.564 79.8911 458.971 80.2562 459.252 80.7127C459.555 81.2394 459.706 81.8404 459.688 82.4482C459.707 83.051 459.556 83.647 459.252 84.1678C458.971 84.6242 458.564 84.9893 458.081 85.2186C457.573 85.4539 457.02 85.5736 456.461 85.5689L452.499 85.553ZM456.343 80.5439H453.772V84.2728H456.317C456.822 84.2842 457.316 84.1237 457.718 83.8175C457.92 83.6445 458.079 83.4258 458.181 83.1795C458.283 82.9331 458.325 82.6661 458.303 82.4004C458.303 81.7423 458.113 81.2699 457.734 80.9833C457.331 80.6873 456.842 80.5328 456.343 80.5439ZM461.998 74.7705V85.5211H460.725V74.7705H461.998Z" fill="#D6B380"/>
<path d="M146.638 29.6346H150.597V23.0746C150.595 22.9747 150.617 22.8757 150.659 22.7853C150.701 22.6948 150.764 22.6152 150.842 22.5524C151.019 22.4024 151.246 22.324 151.478 22.3327H154.661V56.6353H151.796V57.855H161.999V56.6353H159.135V22.3454H162.318C162.549 22.3389 162.776 22.417 162.954 22.5651C163.032 22.6279 163.094 22.7075 163.137 22.798C163.179 22.8885 163.201 22.9874 163.199 23.0874V29.6346H167.129V20.6768H146.638V29.6346Z" fill="#0F337A"/>
<path d="M178.369 21.8964H180.034V45.3497C180.038 45.6454 179.975 45.9381 179.849 46.2056C179.723 46.4732 179.538 46.7087 179.308 46.8942C178.791 47.3065 178.149 47.531 177.488 47.531C176.826 47.531 176.185 47.3065 175.667 46.8942C175.437 46.7092 175.251 46.4738 175.126 46.2061C175 45.9384 174.937 45.6455 174.942 45.3497V21.8964H176.606V20.6768H167.861V21.8964H170.461V43.3658C170.452 44.2451 170.639 45.1153 171.008 45.9134C171.367 46.6753 171.882 47.3533 172.52 47.9036C173.176 48.4676 173.932 48.9049 174.748 49.1933C175.625 49.5052 176.55 49.6614 177.481 49.6551C178.348 49.6584 179.209 49.5141 180.027 49.2283V50.8015C180.039 51.5763 179.915 52.3471 179.658 53.0783C179.437 53.7017 179.091 54.2729 178.64 54.7565C178.193 55.2212 177.65 55.5821 177.049 55.8137C176.386 56.0666 175.682 56.1919 174.974 56.1831H171.473V57.855H174.974C176.288 57.8691 177.597 57.6845 178.856 57.3072C179.986 56.9653 181.02 56.362 181.873 55.5463C182.748 54.6693 183.411 53.6041 183.811 52.4319C184.301 50.9474 184.532 49.39 184.495 47.8272V21.8964H187.099V20.6768H178.369V21.8964Z" fill="#0F337A"/>
<path d="M198.397 21.8964H200.061V39.0605H194.969V21.8964H196.634V20.6768H187.888V21.8964H190.488V56.6353H187.888V57.855H196.634V56.6353H194.969V40.7323H200.061V56.6353H198.397V57.855H207.142V56.6353H204.542V21.8964H207.142V20.6768H198.397V21.8964Z" fill="#0F337A"/>
<path d="M218.58 21.8964H220.4V27.7494L214.996 44.0473V21.8964H216.817V20.6768H208.071V21.8964H210.671V56.6353H208.071V57.855H216.817V56.6353H214.996V50.8269L220.4 34.4844V56.6353H218.58V57.855H227.325V56.6353H224.722V21.8964H227.325V20.6768H218.58V21.8964Z" fill="#0F337A"/>
<path d="M245.115 45.1236C245.136 43.8975 244.75 42.6989 244.017 41.7163C243.357 40.8403 242.496 40.1367 241.506 39.6655C242.46 39.1854 243.279 38.4751 243.889 37.5988C244.571 36.6047 244.926 35.4225 244.905 34.217V21.8964H247.508V20.6768H238.763V21.8964H240.427V35.3888C240.425 35.8501 240.316 36.3047 240.109 36.7167C239.897 37.136 239.605 37.5093 239.249 37.8154C238.873 38.1389 238.442 38.3923 237.976 38.5637C237.478 38.7472 236.951 38.8389 236.42 38.8344H235.332V21.8964H236.996V20.6768H228.251V21.8964H230.851V56.6353H228.251V57.855H236.996V56.6353H235.332V40.5062H236.42C236.951 40.503 237.478 40.5946 237.976 40.7769C238.441 40.9495 238.872 41.2029 239.249 41.5252C239.606 41.8317 239.898 42.2063 240.109 42.627C240.316 43.0378 240.425 43.4914 240.427 43.9517V56.6353H238.763V57.855H247.61V56.6353H245.115V45.1236Z" fill="#0F337A"/>
<path d="M298.108 21.8964H300.708V56.6353H298.108V57.855H306.854V56.6353H305.189V22.3454H310.281V56.6353H308.617V57.855H317.362V56.6353H314.762V21.8964H317.362V20.6768H298.108V21.8964Z" fill="#0F337A"/>
<path d="M334.945 26.333C334.954 25.4537 334.767 24.5835 334.398 23.7854C334.038 23.0246 333.524 22.3477 332.886 21.7983C332.23 21.2336 331.475 20.7953 330.659 20.5054C328.887 19.894 326.963 19.894 325.191 20.5054C324.376 20.796 323.621 21.2343 322.964 21.7983C322.31 22.3573 321.787 23.0532 321.431 23.8368C321.076 24.6204 320.897 25.4726 320.908 26.333V56.636H318.295V57.8556H327.04V56.636H325.376V40.7329H330.468V56.636H328.797V57.8556H337.542V56.636H334.942L334.945 26.333ZM326.098 22.3524C326.616 21.9401 327.257 21.7156 327.919 21.7156C328.58 21.7156 329.222 21.9401 329.739 22.3524C329.969 22.5382 330.155 22.7742 330.28 23.0424C330.406 23.3106 330.469 23.6039 330.465 23.9001V39.0611H325.373V23.9032C325.368 23.6066 325.431 23.3129 325.557 23.0443C325.683 22.7756 325.868 22.5391 326.098 22.3524Z" fill="#0F337A"/>
<path d="M353.063 22.1959C352.394 21.6891 351.64 21.3063 350.836 21.0655C349.951 20.802 349.032 20.671 348.108 20.6769H338.481V21.8966H341.085V56.6355H338.481V57.8552H348.684V56.6355H345.562V44.6971H348.108C349.032 44.7038 349.951 44.5718 350.836 44.3054C351.64 44.067 352.395 43.6851 353.063 43.1781C353.7 42.6883 354.217 42.0613 354.578 41.3439C354.954 40.5708 355.143 39.7198 355.129 38.86V26.514C355.143 25.6542 354.955 24.8032 354.578 24.0302C354.217 23.3127 353.7 22.6858 353.063 22.1959ZM349.922 42.3884C349.415 42.8186 348.767 43.0455 348.102 43.0253H345.556V22.3456H348.102C348.766 22.3269 349.414 22.5536 349.922 22.9825C350.153 23.1683 350.338 23.4043 350.464 23.6724C350.589 23.9406 350.652 24.2339 350.648 24.5301V40.8439C350.653 41.1397 350.59 41.4326 350.464 41.7003C350.338 41.968 350.153 42.2034 349.922 42.3884Z" fill="#0F337A"/>
<path d="M357.516 29.6346H361.475V23.0746C361.473 22.9747 361.495 22.8757 361.537 22.7853C361.579 22.6948 361.642 22.6152 361.72 22.5524C361.898 22.4042 362.124 22.3261 362.356 22.3327H365.539V56.6353H362.674V57.855H372.877V56.6353H370.013V22.3454H373.196C373.427 22.3389 373.654 22.417 373.832 22.5651C373.91 22.6279 373.972 22.7075 374.015 22.798C374.057 22.8885 374.078 22.9874 374.077 23.0874V29.6346H378.036V20.6768H357.535L357.516 29.6346Z" fill="#0F337A"/>
<path d="M389.454 21.8964H391.118V39.0605H386.026V21.8964H387.691V20.6768H378.945V21.8964H381.549V56.6353H378.945V57.855H387.691V56.6353H386.026V40.7323H391.118V56.6353H389.454V57.855H398.199V56.6353H395.599V21.8964H398.199V20.6768H389.454V21.8964Z" fill="#0F337A"/>
<path d="M399.129 21.8964H401.732V56.6353H399.129V57.855H415.573V48.8844H411.302V55.4284C411.304 55.5281 411.283 55.6269 411.241 55.7174C411.199 55.8078 411.137 55.8876 411.06 55.9507C410.883 56.101 410.656 56.1793 410.423 56.1704H406.213V40.7323H413.186V39.0605H406.213V22.3454H410.423C410.655 22.3389 410.881 22.417 411.06 22.5651C411.137 22.6285 411.198 22.7083 411.24 22.7987C411.282 22.8891 411.303 22.9878 411.302 23.0874V29.6346H415.573V20.6768H399.129V21.8964Z" fill="#0F337A"/>
<path d="M432.029 22.1959C431.36 21.6894 430.606 21.3066 429.802 21.0655C428.918 20.8018 428 20.6708 427.078 20.677H417.451V21.8966H420.051V56.6355H417.451V57.8552H427.654V56.6355H424.532V44.6971H427.078C428 44.7038 428.918 44.5718 429.802 44.3054C430.606 44.0667 431.361 43.6848 432.029 43.1781C432.666 42.6883 433.183 42.0614 433.544 41.3439C433.919 40.5702 434.107 39.7196 434.095 38.8601V26.514C434.108 25.6544 433.919 24.8037 433.544 24.0302C433.183 23.3127 432.666 22.6858 432.029 22.1959ZM428.888 42.3884C428.381 42.8186 427.733 43.0455 427.068 43.0253H424.522V22.3456H427.068C427.732 22.3269 428.38 22.5536 428.888 22.9825C429.118 23.1688 429.303 23.4048 429.429 23.6729C429.555 23.941 429.618 24.2341 429.614 24.5301V40.844C429.618 41.1396 429.555 41.4323 429.429 41.6999C429.303 41.9675 429.119 42.2029 428.888 42.3884Z" fill="#0F337A"/>
<path d="M463.223 21.8964V20.6768H453.542V21.8964H456.142V56.6353H453.542V57.855H463.223V56.6353H460.623V21.8964H463.223Z" fill="#0F337A"/>
<path d="M451.066 40.1432C450.397 39.6364 449.642 39.2535 448.838 39.0127C447.953 38.7488 447.034 38.6178 446.111 38.6242H443.565V21.8964H446.168V20.6768H436.487V21.8964H439.087V56.6353H436.487V57.855H446.111C447.035 57.8617 447.954 57.7297 448.838 57.4633C449.642 57.2236 450.397 56.8418 451.066 56.336C451.705 55.8474 452.223 55.2188 452.581 54.4986C452.957 53.7267 453.146 52.8767 453.131 52.0179V44.4485C453.146 43.5887 452.957 42.7377 452.581 41.9647C452.22 41.2505 451.702 40.6276 451.066 40.1432ZM447.928 55.559C447.42 55.9891 446.77 56.216 446.105 56.1959H443.559V40.2801H446.105C446.77 40.2615 447.419 40.4882 447.928 40.917C448.158 41.1034 448.342 41.3396 448.467 41.6077C448.592 41.8758 448.655 42.1688 448.651 42.4646V54.0018C448.655 54.2972 448.593 54.5898 448.467 54.8574C448.342 55.125 448.158 55.3606 447.928 55.5463V55.559Z" fill="#0F337A"/>
<path d="M292.367 54.5133C292.023 54.803 291.644 55.0471 291.237 55.2394C290.834 55.4528 290.41 55.6225 289.971 55.7457C289.442 55.8953 288.894 55.9683 288.345 55.9622C287.532 55.9217 286.753 55.6278 286.117 55.1216C285.309 54.5386 284.554 53.8854 283.861 53.1695C283.016 52.2986 282.233 51.3697 281.518 50.3895C282.385 49.1587 283.131 47.847 283.746 46.4727C284.412 44.9753 284.951 43.4243 285.356 41.8361C285.867 39.8282 286.115 37.7621 286.091 35.6902C286.098 35.2768 286.022 34.8663 285.869 34.4825C285.715 34.0987 285.487 33.7493 285.197 33.4547C284.609 32.8809 283.82 32.5597 282.998 32.5597C282.176 32.5597 281.387 32.8809 280.799 33.4547C280.24 34.0725 279.931 34.876 279.931 35.7093C279.931 36.5425 280.24 37.3461 280.799 37.9639C281.084 38.257 281.426 38.4878 281.805 38.6418C282.183 38.7958 282.59 38.8697 282.998 38.8587C283.398 38.868 283.796 38.7863 284.16 38.6199C284.451 38.4827 284.716 38.2976 284.946 38.0721C285.045 37.9856 285.136 37.8908 285.219 37.7887C285.098 39.3897 284.815 40.9741 284.373 42.5176C283.983 43.8824 283.491 45.2162 282.903 46.5077C282.412 47.6243 281.794 48.6801 281.06 49.6539C280.013 48.291 279.004 46.9376 278.059 45.632C277.114 44.3263 276.127 42.9348 275.195 41.5973C274.262 40.2598 273.362 38.916 272.483 37.5658C271.605 36.2156 270.749 34.8877 269.88 33.5216C270.747 33.0204 271.555 32.4233 272.289 31.7415C272.976 31.0947 273.579 30.364 274.084 29.5665C274.628 28.7244 274.915 27.7416 274.908 26.7387C274.92 26.0573 274.79 25.3809 274.527 24.7523C274.264 24.1236 273.874 23.5563 273.381 23.0862C272.852 22.5862 272.229 22.1968 271.548 21.9409C270.867 21.685 270.142 21.5677 269.415 21.5959C268.439 21.5845 267.469 21.7484 266.551 22.0799C265.742 22.3741 264.999 22.8254 264.365 23.4078C263.774 23.9658 263.3 24.6359 262.971 25.379C262.641 26.1207 262.471 26.9236 262.471 27.7355C262.499 28.5218 262.658 29.2979 262.942 30.0314C263.261 30.8976 263.579 31.7256 263.942 32.4866C264.343 33.3401 264.804 34.2349 265.323 35.1456C264.597 35.5202 263.894 35.9392 263.219 36.4003C262.481 36.9215 261.773 37.4828 261.097 38.0817C260.302 38.7821 259.587 39.5681 258.964 40.4254C258.286 41.3578 257.733 42.3748 257.319 43.4506C256.866 44.6378 256.641 45.8995 256.654 47.17C256.647 48.6464 256.939 50.1089 257.513 51.469C258.073 52.7915 258.883 53.9929 259.9 55.0069C260.963 56.0608 262.224 56.8937 263.61 57.4577C264.996 58.0218 266.481 58.3057 267.977 58.2933C269.448 58.3134 270.911 58.0741 272.299 57.5863C273.453 57.1722 274.567 56.6509 275.624 56.0291C276.635 55.4336 277.567 54.7124 278.396 53.8828C279.093 54.6803 279.876 55.397 280.732 56.0196C281.57 56.6403 282.476 57.1648 283.431 57.5831C284.521 58.0625 285.7 58.3045 286.89 58.2933C287.713 58.3014 288.529 58.1354 289.283 57.806C289.94 57.5218 290.568 57.1741 291.158 56.7679C291.761 56.3163 292.321 55.8088 292.829 55.2521L292.902 55.1725L292.523 54.3923L292.367 54.5133ZM266.682 26.7292C266.669 26.226 266.757 25.7253 266.941 25.2566C267.125 24.788 267.4 24.3608 267.751 24.0001C268.099 23.6518 268.512 23.3754 268.967 23.1869C269.422 22.9984 269.91 22.9013 270.402 22.9013C270.894 22.9013 271.382 22.9984 271.837 23.1869C272.292 23.3754 272.705 23.6518 273.053 24.0001C273.404 24.361 273.679 24.7882 273.863 25.2568C274.046 25.7254 274.134 26.226 274.122 26.7292C274.136 27.6094 273.883 28.473 273.397 29.2067C272.926 29.9156 272.374 30.5665 271.751 31.146C271.051 31.7557 270.288 32.2894 269.476 32.7382C268.525 31.4868 267.736 30.1205 267.127 28.6717C266.85 28.0608 266.698 27.4001 266.682 26.7292ZM277.661 53.0963C277.139 53.3588 276.593 53.5721 276.032 53.7332C275.364 53.9522 274.683 54.1245 273.992 54.249C273.13 54.4035 272.255 54.4781 271.379 54.4719C270.012 54.4829 268.656 54.2243 267.388 53.7109C266.206 53.233 265.126 52.5337 264.206 51.6505C263.329 50.8 262.618 49.7936 262.109 48.6826C261.601 47.5781 261.341 46.3762 261.345 45.1607C261.322 43.8194 261.557 42.4863 262.039 41.2343C262.443 40.193 262.965 39.2015 263.595 38.2791C264.222 37.4199 264.945 36.6347 265.749 35.9386C267.557 39.123 269.444 42.1991 271.36 45.0747C273.242 47.9131 275.349 50.5956 277.661 53.0963Z" fill="#0F337A"/>
</svg>
