<svg width="77" height="76" viewBox="0 0 77 76" fill="none" xmlns="http://www.w3.org/2000/svg">
<mask id="mask0_0_991" style="mask-type:luminance" maskUnits="userSpaceOnUse" x="0" y="0" width="77" height="77">
<path d="M0.5 0.664055H76.5V76.6641H0.5V0.664055Z" fill="white"/>
</mask>
<g mask="url(#mask0_0_991)">
<path d="M74.2734 43.1172V34.2109L69.2227 33.598C68.4298 28.7796 66.5407 24.3366 63.8022 20.5274L66.8395 16.6221L60.5419 10.3247L56.6368 13.3618C52.8275 10.6233 48.3845 8.7343 43.566 7.9415L42.9531 2.89062H34.0469L33.434 7.9415C28.6156 8.7343 24.1725 10.6233 20.3632 13.3618L16.4581 10.3247L10.1605 16.6221L13.1979 20.5274C10.4593 24.3366 8.57025 28.7796 7.7773 33.598L2.72656 34.2109V43.1172L7.7773 43.7301C8.57025 48.5485 10.4593 52.9915 13.1979 56.8009L10.1605 60.7057L16.4581 67.0036L20.3632 63.9663C24.1725 66.7048 28.6156 68.5938 33.434 69.3866L34.0469 74.4375H42.9531L43.566 69.3866C48.3845 68.5938 52.8275 66.7048 56.6368 63.9663L60.5419 67.0036L66.8395 60.7057L63.8022 56.8009C66.5407 52.9915 68.4298 48.5485 69.2227 43.7301L74.2734 43.1172Z" stroke="#0F337A" stroke-width="1.5" stroke-miterlimit="10"/>
<path d="M38.5 60.9297C26.2235 60.9297 16.2344 50.9406 16.2344 38.6641C16.2344 26.3875 26.2235 16.3984 38.5 16.3984C50.7765 16.3984 60.7656 26.3875 60.7656 38.6641C60.7656 50.9406 50.7765 60.9297 38.5 60.9297Z" stroke="#0F337A" stroke-width="1.5" stroke-miterlimit="10"/>
<path d="M29.5938 36.4375L36.2734 43.1172L47.4063 31.9844" stroke="#0F337A" stroke-width="1.5" stroke-miterlimit="10"/>
</g>
</svg>
