<svg width="68" height="68" viewBox="0 0 68 68" fill="none" xmlns="http://www.w3.org/2000/svg">
<path d="M31.0156 40.1133V21.7597" stroke="#0F337A" stroke-width="1.5" stroke-miterlimit="10" stroke-linecap="round" stroke-linejoin="round"/>
<mask id="mask0_0_965" style="mask-type:luminance" maskUnits="userSpaceOnUse" x="0" y="0" width="68" height="68">
<path d="M0.846191 0.663742H67.2908V67.1084H0.846191V0.663742Z" fill="white"/>
</mask>
<g mask="url(#mask0_0_965)">
<path d="M31.0157 17.2611V14.7047C31.0157 14.3446 30.7237 14.0527 30.3637 14.0527H5.87689C4.68219 14.0527 3.71484 14.976 3.71484 16.1165V40.1133" stroke="#0F337A" stroke-width="1.5" stroke-miterlimit="10" stroke-linecap="round" stroke-linejoin="round"/>
<path d="M31.0156 66.1738V40.1132" stroke="#0F337A" stroke-width="1.5" stroke-miterlimit="10" stroke-linecap="round" stroke-linejoin="round"/>
<path d="M45.0994 66.1738H31.0161V40.1135H39.98C40.4583 40.1135 40.7839 40.6153 40.5712 41.0436C40.2933 41.6036 40.1381 42.2296 40.1381 42.8915C40.1381 45.2787 42.1656 47.2132 44.6661 47.2132C47.1677 47.2132 49.1953 45.2787 49.1953 42.8915C49.1953 42.2296 49.0395 41.6036 48.7615 41.0436C48.5489 40.6153 48.8744 40.1135 49.3526 40.1135H57.6654C58.0253 40.1135 58.3172 40.4055 58.3172 40.7655V64.1099C58.3172 65.251 57.3499 66.1738 56.1549 66.1738H49.5551" stroke="#0F337A" stroke-width="1.5" stroke-miterlimit="10" stroke-linecap="round" stroke-linejoin="round"/>
<path d="M3.71484 64.11C3.71484 65.2505 4.68218 66.1738 5.87689 66.1738H31.0157V40.1132H20.8347C21.4955 39.3619 21.8941 38.3933 21.8941 37.3357C21.8941 34.9481 19.8665 33.0126 17.3653 33.0126C14.8641 33.0126 12.8366 34.9481 12.8366 37.3357C12.8366 38.3933 13.235 39.3619 13.8958 40.1132H3.71484L3.71484 64.11Z" stroke="#0F337A" stroke-width="1.5" stroke-miterlimit="10" stroke-linecap="round" stroke-linejoin="round"/>
<path d="M64.4224 3.66121C64.4224 2.52075 63.4551 1.5974 62.2604 1.5974H37.1216V27.0061C37.1216 27.3661 37.4134 27.658 37.7736 27.658H47.3025C46.6417 28.4094 46.2432 29.3779 46.2432 30.4355C46.2432 32.8231 48.2708 34.7586 50.7719 34.7586C53.2732 34.7586 55.3007 32.8231 55.3007 30.4355C55.3007 29.3779 54.9023 28.4094 54.2415 27.658H63.7704C64.1304 27.658 64.4224 27.3661 64.4224 27.0061V3.66121Z" stroke="#0F337A" stroke-width="1.5" stroke-miterlimit="10" stroke-linecap="round" stroke-linejoin="round"/>
</g>
</svg>
